<svg width="488" height="365" viewBox="0 0 488 365" fill="none" xmlns="http://www.w3.org/2000/svg">
<path d="M402.915 298.403C327.295 378.823 195.254 367.169 141.765 350.736C0.723021 307.363 -12.8506 84.7965 117.786 79.0471C158.187 77.2717 179.41 123.432 280.525 57.7009C363.897 3.50957 440.756 80.5644 449.066 143.117C456.239 197.432 442.397 256.423 402.915 298.403Z" fill="#C4E1F3"/>
<path d="M203.429 154.368C203.746 151.32 204.774 148.39 206.432 145.813C208.09 143.236 210.33 141.084 212.972 139.532C215.613 137.98 218.583 137.071 221.641 136.878C224.699 136.685 227.76 137.213 230.576 138.42C232.469 134.355 235.484 130.915 239.265 128.505C243.047 126.095 247.438 124.815 251.922 124.815C252.325 124.815 252.727 124.815 253.12 124.815C255.041 121.105 258.103 118.108 261.854 116.266C265.605 114.424 269.848 113.834 273.96 114.583C278.071 115.331 281.834 117.379 284.695 120.425C287.557 123.471 289.366 127.354 289.856 131.504C291.536 131.034 293.272 130.795 295.017 130.792C298.836 130.79 302.572 131.907 305.762 134.006C308.953 136.105 311.458 139.093 312.967 142.601C314.962 141.899 317.089 141.657 319.19 141.894C321.291 142.132 323.311 142.841 325.099 143.971C326.886 145.1 328.395 146.619 329.512 148.414C330.628 150.209 331.324 152.234 331.547 154.337L203.429 154.368Z" fill="white"/>
<path d="M113.451 354.886H200.446L200.446 233.095H113.451L113.451 354.886Z" fill="#DFF1FF"/>
<path d="M177.861 61.6233H127.035V239.515H177.861V61.6233Z" fill="#DFF1FF"/>
<path d="M172.401 51.683H133.466V61.6232H172.401V51.683Z" fill="#DFF1FF"/>
<path d="M164.452 38.7494H141.351V55.6364H164.452V38.7494Z" fill="#DFF1FF"/>
<path d="M136.035 72.3273H133.63V183.755H136.035V72.3273Z" fill="#C4E1F3"/>
<path d="M143.024 79.3051H140.619V190.733H143.024V79.3051Z" fill="#C4E1F3"/>
<path d="M150.002 86.2932H147.597V197.721H150.002V86.2932Z" fill="#C4E1F3"/>
<path d="M156.98 93.271H154.575V204.699H156.98V93.271Z" fill="#C4E1F3"/>
<path d="M200.477 238.989L291.859 273.289V354.886H200.477V238.989Z" fill="#DFF1FF"/>
<path d="M353.296 356.248H421.67L421.67 55.6982H353.296L353.296 356.248Z" fill="#DFF1FF"/>
<path d="M380.103 55.6984L414.806 55.6984V42.3209H380.103V55.6984Z" fill="#DFF1FF"/>
<path d="M390.827 6.67841L408.891 16.4638V42.3208H390.827V6.67841Z" fill="#DFF1FF"/>
<path d="M362.307 72.2344H414.806V68.0849H362.307V72.2344Z" fill="#C8E2F9"/>
<path d="M362.307 83.2791H414.806V79.1296H362.307V83.2791Z" fill="#C8E2F9"/>
<path d="M362.307 94.3341H414.806V90.195H362.307V94.3341Z" fill="#C8E2F9"/>
<path d="M362.307 105.389H414.806V101.25H362.307V105.389Z" fill="#C8E2F9"/>
<path d="M362.307 116.434H414.806V112.295H362.307V116.434Z" fill="#C8E2F9"/>
<path d="M362.307 127.489H414.806V123.339H362.307V127.489Z" fill="#C8E2F9"/>
<path d="M362.307 138.544H414.806V134.405H362.307V138.544Z" fill="#C8E2F9"/>
<path d="M362.307 149.589H414.806V145.439H362.307V149.589Z" fill="#C8E2F9"/>
<path d="M291.859 354.886H353.296V207.382H291.859V354.886Z" fill="#DFF1FF"/>
<path d="M339.382 230.483H346.194V219.129H339.382V230.483Z" fill="#C8E2F9"/>
<path d="M319.213 230.483H326.036V219.129H319.213V230.483Z" fill="#C8E2F9"/>
<path d="M309.148 230.483H315.961V219.129H309.148V230.483Z" fill="#C8E2F9"/>
<path d="M346.194 238.71H339.382V250.064H346.194V238.71Z" fill="#C8E2F9"/>
<path d="M336.11 238.71H329.297V250.064H336.11V238.71Z" fill="#C8E2F9"/>
<path d="M305.876 238.71H299.063V250.064H305.876V238.71Z" fill="#C8E2F9"/>
<path d="M336.11 258.281H329.297V269.635H336.11V258.281Z" fill="#C8E2F9"/>
<path d="M305.876 258.281H299.063V269.635H305.876V258.281Z" fill="#C8E2F9"/>
<path d="M339.382 289.206H346.194V277.862H339.382V289.206Z" fill="#C8E2F9"/>
<path d="M329.307 289.206H336.12V277.862H329.307V289.206Z" fill="#C8E2F9"/>
<path d="M319.213 289.206H326.036V277.862H319.213V289.206Z" fill="#DEDFE0"/>
<path d="M299.064 289.206H305.876V277.862H299.064V289.206Z" fill="#C8E2F9"/>
<path d="M57.8351 355.309H119.262L119.262 55.6674H57.8351L57.8351 355.309Z" fill="#DFF1FF"/>
<path d="M69.1897 62.7793L108.001 62.7793V30.9974L69.1897 30.9974V62.7793Z" fill="#DFF1FF"/>
<path d="M78.6853 31.7819L98.5142 31.7819V15.5451L78.6853 15.5451V31.7819Z" fill="#DFF1FF"/>
<path d="M84.3526 18.9412H92.8374V1.90735e-05H84.3526V18.9412Z" fill="#DFF1FF"/>
<path d="M105.347 137.481H112.17V126.126H105.347V137.481Z" fill="#C4E1F3"/>
<path d="M85.1884 137.481H92.001V126.126H85.1884V137.481Z" fill="#C4E1F3"/>
<path d="M75.1038 137.481H81.9268V126.126H75.1038V137.481Z" fill="#C4E1F3"/>
<path d="M105.347 117.9H112.17V106.545H105.347V117.9Z" fill="#C4E1F3"/>
<path d="M95.2635 117.9H102.086V106.545H95.2635V117.9Z" fill="#C4E1F3"/>
<path d="M65.0301 117.9H71.853V106.545H65.0301V117.9Z" fill="#C4E1F3"/>
<path d="M95.2635 98.3288H102.086V86.9744H95.2635V98.3288Z" fill="#C4E1F3"/>
<path d="M65.0301 98.3288H71.853V86.9744H65.0301V98.3288Z" fill="#C4E1F3"/>
<path d="M105.347 78.758H112.17V67.4139H105.347V78.758Z" fill="#C4E1F3"/>
<path d="M95.2635 78.758H102.086V67.4139H95.2635V78.758Z" fill="#DFF1FF"/>
<path d="M85.1884 78.758H92.001V67.4139H85.1884V78.758Z" fill="#C4E1F3"/>
<path d="M65.0301 78.758H71.853V67.4139H65.0301V78.758Z" fill="#C4E1F3"/>
<path d="M184.22 252.82H191.042V241.466H184.22V252.82Z" fill="#DEDFE0"/>
<path d="M173.175 252.82H179.998V241.466H173.175V252.82Z" fill="#DFF1FF"/>
<path d="M162.131 252.82H168.954V241.466H162.131V252.82Z" fill="#DFF1FF"/>
<path d="M140.031 252.82H146.844V241.466H140.031V252.82Z" fill="#DFF1FF"/>
<path d="M128.965 252.82H135.788V241.466H128.965V252.82Z" fill="#DFF1FF"/>
<path d="M117.91 252.82H124.733V241.466H117.91V252.82Z" fill="#DEDFE0"/>
<path d="M173.175 270.162H179.998V258.807H173.175V270.162Z" fill="#DFF1FF"/>
<path d="M151.065 270.162H157.888V258.807H151.065V270.162Z" fill="#DFF1FF"/>
<path d="M140.031 270.162H146.844V258.807H140.031V270.162Z" fill="#C4E1F3"/>
<path d="M128.965 270.162H135.788V258.807H128.965V270.162Z" fill="#DFF1FF"/>
<path d="M117.91 270.162H124.733V258.807H117.91V270.162Z" fill="#DFF1FF"/>
<path d="M184.22 287.513H191.042V276.169H184.22V287.513Z" fill="#DFF1FF"/>
<path d="M173.175 287.513H179.998V276.169H173.175V287.513Z" fill="#DFF1FF"/>
<path d="M140.031 287.513H146.844V276.169H140.031V287.513Z" fill="#DEDFE0"/>
<path d="M128.965 287.513H135.788V276.169H128.965V287.513Z" fill="#C4E1F3"/>
<path d="M184.22 304.865H191.042V293.51H184.22V304.865Z" fill="#DFF1FF"/>
<path d="M162.131 304.865H168.954V293.51H162.131V304.865Z" fill="#DFF1FF"/>
<path d="M151.065 304.865H157.888V293.51H151.065V304.865Z" fill="#DEDFE0"/>
<path d="M140.031 304.865H146.844V293.51H140.031V304.865Z" fill="#DEDFE0"/>
<path d="M128.965 304.865H135.788V293.51H128.965V304.865Z" fill="#C4E1F3"/>
<path d="M117.91 304.865H124.733V293.51H117.91V304.865Z" fill="#C4E1F3"/>
<path d="M46.1086 236.088H22.3677C22.0939 236.088 21.8314 235.979 21.6378 235.786C21.4442 235.592 21.3354 235.33 21.3354 235.056C21.3354 234.782 21.4442 234.52 21.6378 234.326C21.8314 234.133 22.0939 234.024 22.3677 234.024H46.1086C46.3824 234.024 46.6449 234.133 46.8385 234.326C47.0321 234.52 47.1408 234.782 47.1408 235.056C47.1408 235.33 47.0321 235.592 46.8385 235.786C46.6449 235.979 46.3824 236.088 46.1086 236.088Z" fill="#558EFA"/>
<path d="M41.2883 257.765H17.5474C17.2736 257.765 17.011 257.656 16.8175 257.462C16.6239 257.269 16.5151 257.006 16.5151 256.733C16.5151 256.459 16.6239 256.196 16.8175 256.003C17.011 255.809 17.2736 255.7 17.5474 255.7H41.2883C41.5621 255.7 41.8246 255.809 42.0182 256.003C42.2118 256.196 42.3205 256.459 42.3205 256.733C42.3205 257.006 42.2118 257.269 42.0182 257.462C41.8246 257.656 41.5621 257.765 41.2883 257.765Z" fill="#558EFA"/>
<path d="M24.7732 245.378H1.03221C0.758455 245.378 0.495907 245.269 0.302329 245.076C0.108751 244.882 0 244.62 0 244.346C0 244.072 0.108751 243.81 0.302329 243.616C0.495907 243.423 0.758455 243.314 1.03221 243.314H24.7732C25.0469 243.314 25.3095 243.423 25.503 243.616C25.6966 243.81 25.8054 244.072 25.8054 244.346C25.8054 244.62 25.6966 244.882 25.503 245.076C25.3095 245.269 25.0469 245.378 24.7732 245.378Z" fill="#558EFA"/>
<path d="M42.3207 245.378H31.9985C31.7248 245.378 31.4622 245.269 31.2686 245.076C31.0751 244.882 30.9663 244.62 30.9663 244.346C30.9663 244.072 31.0751 243.81 31.2686 243.616C31.4622 243.423 31.7248 243.314 31.9985 243.314H42.3207C42.5944 243.314 42.857 243.423 43.0506 243.616C43.2441 243.81 43.3529 244.072 43.3529 244.346C43.3529 244.62 43.2441 244.882 43.0506 245.076C42.857 245.269 42.5944 245.378 42.3207 245.378Z" fill="#558EFA"/>
<path d="M44.3856 268.087H34.0635C33.7897 268.087 33.5272 267.978 33.3336 267.785C33.14 267.591 33.0313 267.328 33.0312 267.055C33.0313 266.781 33.14 266.518 33.3336 266.325C33.5272 266.131 33.7897 266.023 34.0635 266.023H44.3856C44.6594 266.023 44.9219 266.131 45.1155 266.325C45.3091 266.518 45.4178 266.781 45.4178 267.055C45.4178 267.328 45.3091 267.591 45.1155 267.785C44.9219 267.978 44.6594 268.087 44.3856 268.087Z" fill="#558EFA"/>
<g style="mix-blend-mode:multiply">
<path d="M23.7672 364.093L465.359 364.093C467.979 364.093 470.102 361.97 470.102 359.35C470.102 356.731 467.979 354.607 465.359 354.607L23.7671 354.607C21.1476 354.607 19.0241 356.731 19.0241 359.35C19.0241 361.97 21.1476 364.093 23.7672 364.093Z" fill="#AAB5BA"/>
</g>
<path d="M130.047 295.487C130.047 295.487 148.175 299.287 147.259 302.619C146.344 305.951 127.365 296.92 127.365 296.92C127.365 296.92 113.371 309.437 111.424 315.817C111.424 315.817 131.861 312.925 130.154 315.927C128.446 318.929 107.321 322.924 107.321 322.924C107.321 322.924 97.7149 337.721 106.145 344.228C114.575 350.735 121.045 348.548 122.622 346.42C124.199 344.293 130.311 328.975 132.12 330.189C133.928 331.403 132.838 343.005 128.68 348.005C128.68 348.005 146.931 348.149 149.575 339.511C152.219 330.873 148.148 326.171 149.882 320.863C151.617 315.555 154.561 312.369 154.88 315.515C155.199 318.661 150.661 326.98 152.473 332.599C154.286 338.219 155.066 342.478 159.846 335.423C164.625 328.367 169.374 314.101 164.595 308.871L163.996 308.218C164.224 308.408 164.425 308.628 164.595 308.871C166.015 307.792 170.863 307.298 174.51 307.076C175.114 307.076 175.969 307.042 177.145 306.947C177.667 306.928 178.095 306.916 178.391 306.909C186.324 307.008 197.478 313.319 197.478 313.319L198.602 311.854C188.273 303.294 175.889 305.67 175.889 305.67C166.452 306.62 159.808 303.643 159.808 303.643C159.808 303.643 157.652 285.373 143.506 287.618C143.506 287.618 134.287 290.29 130.047 295.487Z" fill="#D2E3FC"/>
<path d="M369.054 141.444C364.225 123.613 334.136 129.185 334.136 129.185C334.136 129.185 313.705 160.392 307.761 161.128C301.817 161.863 320.021 131.035 320.021 131.035C308.504 129.92 279.157 144.037 279.157 144.037C279.157 144.037 281.015 180.446 275.071 179.704C269.128 178.961 275.071 147.381 275.071 147.381C263.927 150.725 253.527 163.728 253.527 163.728C240.524 184.903 268.385 200.508 268.385 200.508C268.385 200.508 268.765 213.14 260.956 227.627C260.956 227.627 259.195 230.302 257.406 234.847H260.445C260.698 234.031 260.973 233.245 261.269 232.489C261.268 232.487 261.268 232.485 261.268 232.482C261.268 232.48 261.268 232.478 261.269 232.476C261.275 232.465 261.279 232.453 261.283 232.441C261.492 231.972 261.79 231.302 262.164 230.49C263.091 228.674 263.718 227.331 264.115 226.362C266.896 220.663 270.902 213.225 273.575 211.667C273.298 211.233 273.079 210.764 272.925 210.273L273.575 211.667C278.776 222.811 304.779 224.669 319.265 221.698C333.751 218.727 327.433 214.639 319.645 208.007C311.856 201.374 295.499 203.122 290.671 200.521C285.842 197.921 292.899 195.32 302.556 196.063C312.214 196.805 317.044 206.466 332.647 207.951C348.25 209.437 360.136 180.087 360.136 180.087C349.363 183.431 330.047 177.487 329.302 173.773C328.557 170.059 357.163 170.429 361.621 169.314C366.079 168.199 373.883 159.277 369.054 141.444Z" fill="#DFEBFD"/>
<path d="M80.5739 142.757C87.2224 132.109 105.699 141.657 105.699 141.657C105.699 141.657 112.844 165.974 116.563 167.633C120.282 169.291 114.515 145.645 114.515 145.645C122.224 147.187 138.531 162.15 138.531 162.15C138.531 162.15 130.152 185.464 134.168 186.15C138.184 186.835 140.532 165.129 140.532 165.129C147.121 169.498 151.327 180.002 151.327 180.002C155.614 196.34 134.421 200.998 134.421 200.998C134.421 200.998 131.693 209.141 133.914 220.101C133.914 220.101 134.531 222.19 134.801 225.498L132.823 224.899C132.823 224.329 132.8 223.759 132.751 223.203C132.751 223.203 132.751 223.186 132.751 223.178C132.707 222.832 132.645 222.338 132.561 221.736C132.316 220.372 132.181 219.375 132.105 218.666C131.419 214.409 130.276 208.787 128.846 207.245C129.111 207.017 129.345 206.755 129.543 206.466L128.846 207.245C123.268 213.47 105.99 209.557 97.1514 204.775C88.3127 199.993 93.2269 198.553 99.6056 195.772C105.984 192.991 116.272 197.351 119.931 196.61C123.589 195.869 119.505 192.787 113.077 191.37C106.649 189.953 101.606 195.282 91.1659 193.177C80.7259 191.072 78.7732 169.641 78.7732 169.641C85.1215 173.938 98.8553 173.875 100.069 171.605C101.283 169.335 82.6065 163.945 79.9338 162.342C77.2611 160.738 73.9255 153.403 80.5739 142.757Z" fill="#D2E3FC"/>
<path d="M10.085 346.456C9.93684 346.498 9.74498 346.54 9.51514 346.582C9.69939 346.546 9.88935 346.494 10.085 346.456Z" fill="#95C38B"/>
<path d="M199.892 238.939L190.757 347.587C190.757 347.587 189.807 354.171 194.697 354.185C202.751 354.204 234.777 354.185 234.777 354.185C234.777 354.185 228.716 352.813 228.79 349.728C228.875 346.092 239.467 237.911 239.467 237.911L199.892 238.939Z" fill="#D86713"/>
<path d="M237.382 352.213C235.8 352.213 205.203 352.313 197.36 352.213C193.941 352.171 193.343 349.173 193.314 347.233C193.304 346.693 193.339 346.152 193.419 345.617L193.656 342.792L194.262 335.595L194.798 329.237L195.483 321.068L196.063 314.17L202.556 236.969L242.137 235.943C242.137 235.943 237.675 281.214 234.519 314.17C234.168 317.842 233.832 321.362 233.522 324.649C233.421 325.698 233.332 326.723 233.231 327.723C232.939 330.84 232.662 333.705 232.439 336.232C232.313 337.565 232.2 338.801 232.101 339.938C231.699 344.382 231.463 347.22 231.459 347.76C231.456 348.055 231.482 348.349 231.535 348.639C232.185 352.099 236.787 352.213 237.382 352.213Z" fill="#F99746"/>
<path d="M103.767 179.818L126.022 269.221L129.069 281.465L139.435 323.106H332.003L293.799 179.818H103.767Z" fill="#F99746"/>
<path d="M103.767 179.818L100.682 180.845L135.334 326.216L139.435 323.106L103.767 179.818Z" fill="#F99746"/>
<path d="M135.334 326.216H326.716L332.003 323.106H139.435L135.334 326.216Z" fill="#D86713"/>
<path d="M202.543 354.225H243.979V352.255H202.543V354.225Z" fill="#F1A34F"/>
<path d="M322.674 296.703L291.426 181.712H104.238L103.767 179.818H293.799L324.94 296.447L322.674 296.703Z" fill="#F1A34F"/>
<path d="M233.446 326.216L233.231 327.721L194.262 335.595L194.797 329.237L195.052 326.216H233.446Z" fill="#D86713"/>
<path opacity="0.4" d="M237.382 352.213C235.799 352.213 205.203 352.313 197.36 352.213C193.941 352.171 193.342 349.173 193.314 347.233L232.101 339.936C231.698 344.38 231.463 347.218 231.459 347.758C231.456 348.053 231.482 348.347 231.535 348.637C232.185 352.099 236.787 352.213 237.382 352.213Z" fill="#D86713"/>
<path d="M224.026 294.099L139.435 323.106L129.069 281.465L224.026 294.099Z" fill="#ED7D2B"/>
<path d="M103.767 179.818H293.799L324.631 294.976H132.433L103.767 179.818Z" fill="#699DEE"/>
<path d="M239.881 313.303C241.603 311.405 241.132 308.171 238.827 306.079C236.523 303.988 233.259 303.832 231.536 305.73C229.814 307.628 230.286 310.862 232.59 312.954C234.895 315.045 238.159 315.201 239.881 313.303Z" fill="#D86713"/>
<path d="M315.669 289.986H137.743L117.592 209.707L116.048 203.55L114.73 198.299L111.639 185.986H287.001L290.395 198.299L291.843 203.55L293.539 209.707L315.669 289.986Z" fill="#E4EDF9"/>
<path d="M290.395 198.299H114.73L111.639 185.986H287.001L290.395 198.299Z" fill="#AFCDFB"/>
<path d="M118.893 191.551C118.682 190.702 119.199 190.012 120.048 190.012C120.49 190.033 120.913 190.194 121.258 190.47C121.604 190.746 121.853 191.125 121.971 191.551C122.183 192.402 121.667 193.09 120.816 193.09C120.374 193.068 119.951 192.908 119.605 192.631C119.26 192.355 119.011 191.977 118.893 191.551Z" fill="#E9F3FE"/>
<path d="M124.007 191.551C123.796 190.702 124.313 190.012 125.162 190.012C125.604 190.034 126.027 190.194 126.373 190.47C126.718 190.747 126.968 191.125 127.086 191.551C127.297 192.402 126.78 193.09 125.929 193.09C125.488 193.068 125.064 192.908 124.719 192.631C124.374 192.355 124.125 191.977 124.007 191.551Z" fill="#E9F3FE"/>
<path d="M129.514 191.551C129.301 190.702 129.82 190.012 130.669 190.012C131.111 190.033 131.534 190.194 131.879 190.47C132.224 190.746 132.474 191.125 132.591 191.551C132.804 192.402 132.287 193.09 131.436 193.09C130.995 193.068 130.571 192.908 130.226 192.631C129.881 192.355 129.632 191.977 129.514 191.551Z" fill="#E9F3FE"/>
<path d="M276.474 282.863H144.679L124.621 204.146H254.558L276.474 282.863Z" fill="#CAE0FF"/>
<path d="M293.518 222.462H263.647L258.184 204.146H288.417L293.518 222.462Z" fill="#D2E3FC"/>
<path d="M212.929 211.812H195.839L195.136 209.177H212.226L212.929 211.812Z" fill="#1C468A"/>
<path d="M243.233 211.812H215.273L214.568 209.177H242.53L243.233 211.812Z" fill="#78ACEA"/>
<path d="M215.801 218.913H185.492L184.789 216.278H215.098L215.801 218.913Z" fill="#78ACEA"/>
<path d="M234.24 218.913H218.529L217.826 216.278H233.537L234.24 218.913Z" fill="#F1A34F"/>
<path d="M218.086 231.138H200.996L200.293 228.503H217.383L218.086 231.138Z" fill="#699DEE"/>
<path d="M248.39 231.138H220.43L219.726 228.503H247.687L248.39 231.138Z" fill="#78ACEA"/>
<path d="M220.96 238.238H190.649L189.946 235.603H220.256L220.96 238.238Z" fill="white"/>
<path d="M239.397 238.238H223.686L222.983 235.603H238.695L239.397 238.238Z" fill="white"/>
<path d="M202.607 249.23H144.782L144.08 246.595H201.904L202.607 249.23Z" fill="#1C468A"/>
<path d="M223.394 249.23H206.303L205.601 246.595H222.691L223.394 249.23Z" fill="#699DEE"/>
<path d="M253.698 249.23H225.736L225.033 246.595H252.995L253.698 249.23Z" fill="#78ACEA"/>
<path d="M163.769 256.329H146.678L145.976 253.694H163.066L163.769 256.329Z" fill="white"/>
<path d="M226.266 256.329H195.957L195.254 253.694H225.563L226.266 256.329Z" fill="#F1A34F"/>
<path d="M194.073 256.329H166.111L165.408 253.694H193.37L194.073 256.329Z" fill="#78ACEA"/>
<path d="M244.705 256.329H228.994L228.291 253.694H244L244.705 256.329Z" fill="#78ACEA"/>
<path d="M209.172 268.832H151.347L150.645 266.197H208.469L209.172 268.832Z" fill="#1C468A"/>
<path d="M229.959 268.832H212.869L212.166 266.197H229.256L229.959 268.832Z" fill="#699DEE"/>
<path d="M170.334 275.933H153.243L152.541 273.298H169.631L170.334 275.933Z" fill="white"/>
<path d="M232.831 275.933H202.521L201.818 273.298H232.128L232.831 275.933Z" fill="#F1A34F"/>
<path d="M200.637 275.933H172.675L171.973 273.298H199.932L200.637 275.933Z" fill="#78ACEA"/>
<path d="M251.27 275.933H235.559L234.856 273.298H250.565L251.27 275.933Z" fill="#78ACEA"/>
<path d="M278.646 228.129L265.501 228.169L265.208 226.976L278.355 226.934L278.646 228.129Z" fill="#78ACEA"/>
<path d="M285.58 228.108L280.637 228.123L280.345 226.928L285.287 226.913L285.58 228.108Z" fill="#78ACEA"/>
<path d="M295.598 228.076L286.861 228.104L286.571 226.909L295.307 226.883L295.598 228.076Z" fill="#78ACEA"/>
<path d="M273.443 231.167L266.236 231.188L265.946 229.995L273.153 229.972L273.443 231.167Z" fill="#78ACEA"/>
<path d="M283.951 231.134L274.644 231.163L274.353 229.968L283.661 229.939L283.951 231.134Z" fill="#78ACEA"/>
<path d="M296.335 231.096L285.667 231.129L285.376 229.934L296.044 229.901L296.335 231.096Z" fill="#78ACEA"/>
<path d="M280.219 234.579L267.072 234.62L266.782 233.426L279.927 233.386L280.219 234.579Z" fill="#78ACEA"/>
<path d="M287.15 234.558L282.208 234.573L281.917 233.38L286.86 233.365L287.15 234.558Z" fill="#78ACEA"/>
<path d="M297.171 234.527L288.435 234.554L288.145 233.361L296.881 233.332L297.171 234.527Z" fill="#78ACEA"/>
<path d="M275.016 237.616L267.809 237.639L267.519 236.444L274.725 236.423L275.016 237.616Z" fill="#78ACEA"/>
<path d="M285.524 237.584L276.216 237.613L275.926 236.42L285.232 236.391L285.524 237.584Z" fill="#78ACEA"/>
<path d="M297.906 237.546L287.24 237.578L286.949 236.385L297.615 236.353L297.906 237.546Z" fill="#78ACEA"/>
<path d="M269.91 206.688L261.993 206.713L261.818 205.995L269.735 205.97L269.91 206.688Z" fill="white"/>
<path d="M274.083 206.675L271.109 206.684L270.932 205.966L273.909 205.957L274.083 206.675Z" fill="white"/>
<path d="M280.118 206.658L274.856 206.673L274.682 205.955L279.943 205.938L280.118 206.658Z" fill="white"/>
<path d="M266.776 208.518L262.437 208.531L262.26 207.813L266.601 207.799L266.776 208.518Z" fill="white"/>
<path d="M273.106 208.499L267.5 208.516L267.325 207.796L272.929 207.779L273.106 208.499Z" fill="white"/>
<path d="M280.561 208.476L274.138 208.495L273.961 207.777L280.386 207.756L280.561 208.476Z" fill="white"/>
<path d="M270.856 210.573L262.941 210.598L262.764 209.878L270.682 209.855L270.856 210.573Z" fill="white"/>
<path d="M275.032 210.56L272.055 210.569L271.88 209.851L274.857 209.842L275.032 210.56Z" fill="white"/>
<path d="M281.064 210.543L275.805 210.558L275.628 209.838L280.89 209.823L281.064 210.543Z" fill="white"/>
<path d="M267.723 212.403L263.383 212.416L263.208 211.696L267.547 211.683L267.723 212.403Z" fill="white"/>
<path d="M274.051 212.384L268.448 212.401L268.271 211.681L273.877 211.664L274.051 212.384Z" fill="white"/>
<path d="M281.507 212.359L275.085 212.38L274.91 211.66L281.333 211.641L281.507 212.359Z" fill="white"/>
<path d="M282.905 245.601L269.758 245.641L269.468 244.448L282.615 244.406L282.905 245.601Z" fill="#78ACEA"/>
<path d="M289.836 245.58L284.894 245.596L284.603 244.401L289.546 244.385L289.836 245.58Z" fill="#78ACEA"/>
<path d="M299.857 245.548L291.121 245.575L290.83 244.382L299.566 244.355L299.857 245.548Z" fill="#78ACEA"/>
<path d="M277.702 248.639L270.495 248.66L270.205 247.467L277.412 247.444L277.702 248.639Z" fill="#78ACEA"/>
<path d="M288.211 248.607L278.903 248.635L278.612 247.44L287.92 247.412L288.211 248.607Z" fill="#78ACEA"/>
<path d="M300.592 248.567L289.926 248.601L289.636 247.406L300.302 247.374L300.592 248.567Z" fill="#78ACEA"/>
<path d="M285.538 256.403L272.393 256.443L272.101 255.25L285.247 255.21L285.538 256.403Z" fill="#78ACEA"/>
<path d="M292.471 256.382L287.526 256.398L287.236 255.203L292.178 255.187L292.471 256.382Z" fill="#78ACEA"/>
<path d="M302.489 256.35L293.753 256.379L293.462 255.184L302.198 255.157L302.489 256.35Z" fill="#78ACEA"/>
<path d="M280.335 259.441L273.128 259.462L272.837 258.269L280.044 258.246L280.335 259.441Z" fill="#78ACEA"/>
<path d="M290.844 259.409L281.536 259.437L281.245 258.242L290.553 258.214L290.844 259.409Z" fill="#78ACEA"/>
<path d="M303.225 259.371L292.559 259.403L292.268 258.208L302.934 258.176L303.225 259.371Z" fill="#78ACEA"/>
<path d="M287.908 266.136L274.763 266.176L274.473 264.983L287.618 264.941L287.908 266.136Z" fill="#78ACEA"/>
<path d="M294.842 266.115L289.899 266.13L289.608 264.935L294.551 264.92L294.842 266.115Z" fill="#78ACEA"/>
<path d="M304.862 266.083L296.126 266.111L295.833 264.916L304.57 264.89L304.862 266.083Z" fill="#78ACEA"/>
<path d="M282.707 269.174L275.499 269.195L275.208 268.001L282.415 267.979L282.707 269.174Z" fill="#78ACEA"/>
<path d="M293.214 269.141L283.908 269.17L283.617 267.975L292.923 267.946L293.214 269.141Z" fill="#78ACEA"/>
<path d="M305.597 269.103L294.931 269.136L294.64 267.941L305.306 267.908L305.597 269.103Z" fill="#78ACEA"/>
<path d="M294.103 280.61C291.991 280.61 289.77 278.9 289.153 276.778C288.535 274.656 289.753 272.948 291.865 272.948C293.978 272.948 296.198 274.658 296.816 276.778C297.433 278.899 296.215 280.61 294.103 280.61ZM292.07 273.648C290.344 273.648 289.348 275.051 289.852 276.778C290.355 278.505 292.171 279.911 293.898 279.911C295.625 279.911 296.62 278.507 296.117 276.778C295.613 275.05 293.797 273.648 292.07 273.648Z" fill="#A8D29F"/>
<path d="M293.476 278.724C293.318 278.711 293.168 278.648 293.047 278.545L290.896 276.824C290.606 276.592 290.517 276.222 290.674 276C290.832 275.777 291.214 275.785 291.504 276.019L293.024 277.234L293.803 275.435C293.917 275.173 294.264 275.116 294.58 275.304C294.895 275.492 295.06 275.857 294.948 276.119L293.924 278.484C293.892 278.555 293.842 278.614 293.777 278.657C293.713 278.7 293.638 278.723 293.562 278.726L293.476 278.724Z" fill="#A8D29F"/>
<path d="M304.68 280.61C302.567 280.61 300.347 278.9 299.729 276.778C299.112 274.656 300.33 272.948 302.442 272.948C304.554 272.948 306.775 274.658 307.392 276.778C308.01 278.899 306.792 280.61 304.68 280.61ZM302.647 273.648C300.919 273.648 299.925 275.051 300.428 276.778C300.932 278.505 302.748 279.911 304.475 279.911C306.201 279.911 307.197 278.507 306.691 276.778C306.186 275.05 304.374 273.648 302.647 273.648Z" fill="#F1A34F"/>
<path d="M303.743 277.405C303.586 277.396 303.434 277.34 303.31 277.243C303.185 277.146 303.092 277.014 303.044 276.864L302.569 275.236C302.544 275.175 302.535 275.109 302.543 275.043C302.55 274.978 302.574 274.915 302.611 274.861C302.649 274.808 302.7 274.764 302.759 274.735C302.818 274.706 302.883 274.692 302.949 274.694C303.107 274.704 303.258 274.761 303.383 274.857C303.508 274.954 303.601 275.086 303.65 275.236L304.125 276.864C304.15 276.925 304.159 276.991 304.152 277.057C304.144 277.123 304.12 277.185 304.082 277.239C304.044 277.293 303.993 277.337 303.934 277.366C303.875 277.395 303.809 277.408 303.743 277.405Z" fill="#F1A34F"/>
<path d="M304.174 278.684H304.058C303.917 278.675 303.783 278.625 303.671 278.539C303.56 278.453 303.477 278.335 303.433 278.201C303.411 278.147 303.402 278.087 303.409 278.028C303.416 277.97 303.437 277.914 303.471 277.865C303.505 277.817 303.551 277.778 303.604 277.752C303.657 277.726 303.716 277.714 303.775 277.717H303.893C304.033 277.725 304.168 277.776 304.279 277.862C304.391 277.949 304.473 278.067 304.516 278.201C304.538 278.256 304.547 278.315 304.54 278.374C304.533 278.433 304.512 278.489 304.478 278.537C304.444 278.585 304.398 278.624 304.345 278.65C304.292 278.675 304.233 278.687 304.174 278.684Z" fill="#F1A34F"/>
<path d="M282.318 220.699C281.159 220.699 279.942 219.749 279.604 218.598C279.265 217.447 279.932 216.497 281.091 216.497C282.25 216.497 283.467 217.447 283.805 218.598C284.144 219.749 283.475 220.699 282.318 220.699ZM281.203 216.88C280.253 216.88 279.71 217.64 279.987 218.59C280.265 219.54 281.258 220.3 282.206 220.3C283.154 220.3 283.697 219.529 283.422 218.59C283.146 217.652 282.149 216.88 281.203 216.88Z" fill="#A8D29F"/>
<path d="M281.974 219.665C281.888 219.658 281.806 219.624 281.739 219.569L280.559 218.619C280.486 218.572 280.433 218.5 280.41 218.416C280.388 218.333 280.398 218.243 280.438 218.167C280.468 218.137 280.504 218.114 280.543 218.099C280.583 218.084 280.624 218.076 280.667 218.077C280.709 218.078 280.75 218.087 280.789 218.104C280.828 218.121 280.863 218.146 280.892 218.176L281.726 218.843L282.153 217.857C282.214 217.713 282.406 217.682 282.579 217.785C282.658 217.825 282.722 217.891 282.758 217.972C282.795 218.054 282.802 218.145 282.78 218.231L282.21 219.529C282.194 219.566 282.168 219.598 282.134 219.622C282.1 219.645 282.061 219.658 282.02 219.66L281.974 219.665Z" fill="#A8D29F"/>
<path d="M276.308 220.699C275.149 220.699 273.931 219.749 273.593 218.598C273.255 217.447 273.922 216.497 275.081 216.497C276.239 216.497 277.455 217.447 277.795 218.598C278.135 219.749 277.465 220.699 276.308 220.699ZM275.193 216.88C274.243 216.88 273.7 217.64 273.977 218.59C274.254 219.54 275.248 220.3 276.196 220.3C277.144 220.3 277.687 219.529 277.411 218.59C277.136 217.652 276.139 216.88 275.193 216.88Z" fill="#A8D29F"/>
<path d="M275.964 219.665C275.878 219.658 275.796 219.624 275.729 219.569L274.549 218.619C274.476 218.572 274.423 218.5 274.4 218.416C274.378 218.333 274.387 218.243 274.427 218.167C274.458 218.137 274.494 218.114 274.533 218.099C274.572 218.084 274.614 218.076 274.656 218.077C274.699 218.078 274.74 218.087 274.779 218.104C274.817 218.121 274.852 218.146 274.881 218.176L275.715 218.843L276.143 217.857C276.204 217.713 276.393 217.682 276.568 217.785C276.648 217.825 276.711 217.891 276.748 217.972C276.785 218.054 276.792 218.145 276.77 218.231L276.2 219.529C276.184 219.566 276.157 219.598 276.124 219.622C276.09 219.645 276.051 219.658 276.01 219.66L275.964 219.665Z" fill="#A8D29F"/>
<path d="M270.082 220.699C268.923 220.699 267.705 219.749 267.367 218.598C267.029 217.447 267.698 216.497 268.854 216.497C270.011 216.497 271.231 217.447 271.569 218.598C271.907 219.749 271.24 220.699 270.082 220.699ZM268.967 216.88C268.017 216.88 267.475 217.64 267.751 218.59C268.026 219.54 269.024 220.3 269.97 220.3C270.915 220.3 271.463 219.529 271.185 218.59C270.908 217.652 269.914 216.88 268.967 216.88Z" fill="#A8D29F"/>
<path d="M269.737 219.665C269.651 219.657 269.569 219.623 269.502 219.569L268.324 218.619C268.25 218.573 268.197 218.5 268.174 218.417C268.152 218.333 268.162 218.243 268.202 218.167C268.233 218.137 268.269 218.114 268.308 218.099C268.347 218.084 268.389 218.076 268.431 218.077C268.474 218.078 268.515 218.087 268.554 218.104C268.592 218.121 268.627 218.146 268.656 218.176L269.488 218.843L269.916 217.857C269.979 217.713 270.169 217.682 270.341 217.785C270.422 217.823 270.487 217.889 270.524 217.971C270.56 218.053 270.567 218.145 270.543 218.231L269.973 219.529C269.956 219.566 269.93 219.598 269.896 219.621C269.863 219.644 269.824 219.657 269.783 219.66L269.737 219.665Z" fill="#A8D29F"/>
<path d="M288.116 220.699C286.959 220.699 285.741 219.749 285.403 218.598C285.065 217.447 285.732 216.497 286.891 216.497C288.049 216.497 289.265 217.447 289.603 218.598C289.941 219.749 289.275 220.699 288.116 220.699ZM287.003 216.88C286.053 216.88 285.51 217.64 285.787 218.59C286.064 219.54 287.058 220.3 288.004 220.3C288.95 220.3 289.497 219.529 289.22 218.59C288.942 217.652 287.949 216.88 287.003 216.88Z" fill="#F1A34F"/>
<path d="M287.603 218.942C287.517 218.936 287.435 218.904 287.367 218.851C287.3 218.798 287.249 218.725 287.223 218.643L286.963 217.752C286.949 217.719 286.944 217.682 286.948 217.646C286.952 217.61 286.965 217.575 286.987 217.545C287.008 217.516 287.036 217.492 287.068 217.476C287.101 217.46 287.137 217.452 287.174 217.454C287.26 217.46 287.342 217.491 287.41 217.544C287.478 217.598 287.528 217.67 287.554 217.752L287.814 218.643C287.828 218.677 287.833 218.714 287.829 218.75C287.824 218.786 287.811 218.821 287.79 218.85C287.769 218.88 287.741 218.904 287.708 218.92C287.676 218.936 287.639 218.943 287.603 218.942Z" fill="#F1A34F"/>
<path d="M287.84 219.641H287.776C287.699 219.637 287.625 219.609 287.563 219.562C287.502 219.515 287.457 219.45 287.434 219.377C287.42 219.347 287.415 219.313 287.418 219.281C287.422 219.248 287.434 219.216 287.453 219.19C287.472 219.163 287.498 219.141 287.528 219.128C287.558 219.114 287.591 219.108 287.624 219.111H287.686C287.764 219.115 287.838 219.142 287.9 219.19C287.961 219.237 288.007 219.303 288.03 219.377C288.043 219.407 288.048 219.44 288.044 219.472C288.041 219.505 288.029 219.536 288.01 219.562C287.991 219.589 287.965 219.61 287.935 219.624C287.905 219.638 287.873 219.643 287.84 219.641Z" fill="#F1A34F"/>
<path d="M85.8072 278.893C85.8072 278.893 88.9738 279.706 90.9873 279.1C93.0009 278.494 96.4656 279.48 97.0222 280.223C97.5788 280.965 97.3755 281.249 96.3802 281.501C95.3848 281.754 91.8573 283.26 89.5418 282.39C87.2262 281.52 84.2002 281.488 84.2002 281.488L85.8072 278.893Z" fill="#E49963"/>
<path d="M58.4419 251.384C58.4419 251.384 61.9979 276.668 67.8884 278.931C70.7947 280.048 83.6395 282.58 87.4386 282.835C87.4386 282.835 88.3694 282.075 88.1434 279.007C88.1434 279.007 74.685 274.067 72.7741 271.379C69.9247 267.38 74.5406 255.041 70.9695 251.285C67.3983 247.529 61.3881 245.917 58.4419 251.384Z" fill="#4A75CB"/>
<path d="M60.495 351.633H62.2122C63.0965 351.633 63.8135 350.916 63.8135 350.032L63.8135 310.178C63.8135 309.294 63.0965 308.577 62.2122 308.577H60.495C59.6106 308.577 58.8936 309.294 58.8936 310.178L58.8936 350.032C58.8936 350.916 59.6106 351.633 60.495 351.633Z" fill="#2B478B"/>
<path d="M46.1743 354.464C47.7661 351.17 53.9625 348.713 61.3556 348.713C68.7487 348.713 74.945 351.17 76.5349 354.464H46.1743Z" fill="#2B478B"/>
<path d="M50.2173 343.295H72.4934C72.7284 343.295 72.9189 343.105 72.9189 342.87V341.986C72.9189 341.751 72.7284 341.561 72.4934 341.561H50.2173C49.9823 341.561 49.7918 341.751 49.7918 341.986V342.87C49.7918 343.105 49.9823 343.295 50.2173 343.295Z" fill="#2B478B"/>
<path d="M59.6404 304.654C60.6838 306.388 61.8446 308.05 63.1147 309.626C66.9385 314.453 71.0928 318.433 71.8242 322.194C71.9896 323.012 72.2143 323.817 72.4966 324.601C72.7986 325.464 73.1728 326.37 73.6059 327.307C75.2282 330.831 77.6539 334.78 80.0758 338.369C84.2644 344.576 88.2021 349.754 88.2021 349.754L95.4205 349.447C95.1317 348.723 91.9823 340.153 87.769 329.689C86.0594 325.437 84.2397 320.916 82.4845 316.556L81.7835 314.818C81.2479 313.488 80.7198 312.171 80.2031 310.891C76.2482 301.059 73.0969 293.223 73.0969 293.223C73.0969 293.223 57.2849 287.233 55.6418 291.114C54.2912 294.315 55.393 297.452 59.6404 304.654Z" fill="#163560"/>
<path d="M88.4282 348.445C88.4282 348.445 88.7967 354.405 89.9479 354.491C90.1017 354.502 95.7947 354.502 95.7947 354.502L103.064 354.46C103.064 354.46 103.017 352.709 100.891 352.338C98.7656 351.968 95.2115 350.474 93.9236 347.667C92.5712 344.707 88.4282 348.445 88.4282 348.445Z" fill="#163560"/>
<path d="M71.706 331.416C71.706 331.416 66.6836 334.646 67.1699 335.692C67.2345 335.831 70.0192 340.803 70.0192 340.803L73.598 347.129C73.598 347.129 75.1043 346.234 74.392 344.198C73.6797 342.161 73.2523 338.329 75.0739 335.839C76.9868 333.213 71.706 331.416 71.706 331.416Z" fill="#163560"/>
<path d="M78.7786 290.559C78.7786 290.559 98.344 302.745 100.565 311.054C102.785 319.364 74.1608 337.081 74.1608 337.081C74.1608 337.081 71.0227 334.311 70.468 332.28C70.468 332.28 83.404 316.782 86.2097 313.307C87.9326 311.174 60.7309 305.921 57.4067 300.752C54.0824 295.582 55.2735 291.232 55.2735 291.232L78.7786 290.559Z" fill="#1C468A"/>
<path d="M41.046 317.337H81.6642C82.4804 317.337 83.1421 316.675 83.1421 315.859V307.735C83.1421 306.919 82.4804 306.257 81.6642 306.257H41.046C40.2298 306.257 39.5681 306.919 39.5681 307.735V315.859C39.5681 316.675 40.2298 317.337 41.046 317.337Z" fill="#EE9849"/>
<path d="M69.3246 247.049C70.4913 247.77 71.5162 248.698 72.3487 249.788C67.5998 251.019 59.7109 246.612 59.7109 246.612C59.7109 246.612 62.7711 244.556 63.9052 240.037C63.9621 239.809 64.0153 239.575 64.0609 239.336C64.2181 238.522 64.3046 237.695 64.3193 236.866L66.5037 238.823L70.1357 242.077C70.0289 243.311 69.8494 244.537 69.5981 245.749C69.5183 246.15 69.4291 246.585 69.3246 247.049Z" fill="#E49963"/>
<path d="M54.6765 269.5C55.3566 278.661 54.46 292.596 55.2331 295.009C55.8998 297.098 63.4981 295.852 66.5298 295.157C67.6524 294.9 69.0125 294.532 70.4163 294.099C74.3331 292.885 78.6014 291.154 79.0592 289.868C79.0762 289.819 79.0901 289.77 79.101 289.72C79.1419 289.542 79.1419 289.358 79.101 289.18C78.9472 288.525 78.3602 287.816 78.2899 286.194C78.212 284.381 78.2253 282.248 78.1569 279.953C78.1569 279.695 78.1569 279.413 78.1209 279.157V279.062C78.1209 279.013 78.1209 278.965 78.1209 278.916C78.0544 276.357 77.9309 273.667 77.7656 270.999C77.6669 269.324 77.5529 267.665 77.4218 266.075C77.0799 261.972 76.6202 258.322 76.0105 256.006C75.0151 252.245 72.8192 249.792 70.8209 247.995L69.3658 246.762C67.7531 247.115 65.8459 246.882 64.1211 246.065C62.2558 245.178 61.6099 244.545 61.2851 244.782C56.9712 248.109 53.8711 258.301 54.6765 269.5Z" fill="#739AF0"/>
<path d="M70.4168 294.099C74.3337 292.885 78.602 291.154 79.0598 289.868C79.0767 289.819 79.0907 289.77 79.1016 289.72C79.1016 289.53 79.1016 289.361 79.1016 289.18C78.9477 288.525 78.3607 287.816 78.2904 286.194C78.2126 284.381 78.2259 282.248 78.1575 279.953C78.1575 279.695 78.1575 279.413 78.1214 279.157V279.062C78.1214 279.013 78.1214 278.965 78.1214 278.916L63.3257 272.206C63.3257 272.206 62.4633 284.131 70.4168 294.099Z" fill="#4A75CB"/>
<path d="M70.1354 242.073C70.0285 243.307 69.849 244.533 69.5978 245.746C66.0513 244.606 64.4424 241.395 63.8991 240.046C63.7471 239.666 63.6807 239.425 63.6807 239.425L64.0606 239.345L66.5034 238.828L70.1354 242.073Z" fill="#D68D5D"/>
<path d="M71.5699 242.037C71.5699 242.037 63.7817 242.917 63.3068 238.048C62.8319 233.179 61.5098 230.025 66.4639 229.259C71.4179 228.494 72.5672 230.253 73.1123 231.837C73.6575 233.422 73.5853 241.678 71.5699 242.037Z" fill="#E49963"/>
<path d="M63.3393 238.39C63.3393 238.39 63.8351 231.93 70.9262 231.269C75.7852 230.811 73.0765 226.63 72.5579 225.963C72.5579 225.963 68.8367 226.472 65.0204 227.103C57.0195 228.427 62.5529 237.385 63.3393 238.39Z" fill="#2B478B"/>
<path d="M101.05 285.231L101.733 285.453L107.533 267.59L106.85 267.368L101.05 285.231Z" fill="#4A75CB"/>
<path d="M82.025 285.036L101.727 285.455L101.752 284.276L82.0501 283.856L82.025 285.036Z" fill="#4A75CB"/>
<path d="M84.1825 282.78C84.1825 282.78 87.2389 283.937 89.3113 283.557C91.3838 283.177 94.7118 284.548 95.1848 285.339C95.6578 286.129 95.4222 286.397 94.406 286.539C93.3897 286.682 89.716 287.788 87.5087 286.667C85.3014 285.546 82.2925 285.183 82.2925 285.183L84.1825 282.78Z" fill="#E49963"/>
<path d="M60.0112 252.421C60.0112 252.421 60.7597 277.943 66.3634 280.844C69.1291 282.274 81.6168 286.209 85.3589 286.881C85.3589 286.881 86.3676 286.234 86.4816 283.152C86.4816 283.152 73.6501 276.757 72.0449 273.876C69.6572 269.588 75.6009 257.834 72.4666 253.706C69.3324 249.577 63.5406 247.313 60.0112 252.421Z" fill="#739AF0"/>
<path d="M272.937 353.676C272.937 353.676 273.223 351.445 273.886 350.121C274.549 348.797 278.764 349.639 278.764 349.639C278.764 349.639 279.608 350.362 279.79 353.734L272.937 353.676Z" fill="#233862"/>
<path d="M258.563 353.645C259.554 353.039 258.99 348.527 258.99 348.527C258.99 348.527 254.372 344.834 253.738 347.663C253.103 350.492 249.352 351.761 247.216 352.106C245.742 352.346 245.287 353.163 245.144 353.645H258.563Z" fill="#233862"/>
<path d="M268.132 320.827C267.971 321.651 267.858 322.484 267.794 323.321C267.365 331.693 260.747 350.837 259.563 351.284C257.732 351.975 254.847 350.507 253.339 350.026C253.033 349.935 252.772 349.735 252.604 349.464C252.437 349.193 252.375 348.87 252.431 348.556C255.707 333.487 256.912 311.789 257.35 298.943C257.573 292.472 258.68 288.002 258.68 288.002C258.68 288.002 274.826 283.695 274.918 289.142C275.005 293.966 269.58 312.872 268.132 320.827Z" fill="#213F7A"/>
<path d="M268.132 320.827L257.35 298.943C257.572 292.472 258.68 288.002 258.68 288.002C258.68 288.002 274.826 283.695 274.917 289.142C275.005 293.966 269.579 312.872 268.132 320.827Z" fill="#233862"/>
<path d="M264.542 289.172L273.075 351.022C273.075 351.022 276.821 351.926 279.737 351.212C279.737 351.212 282.234 318.317 282.016 310.366C281.798 302.416 283.809 289.089 281.56 287.617C279.311 286.144 264.542 289.172 264.542 289.172Z" fill="#213F7A"/>
<path d="M282.168 273.283L283.231 288.131C283.251 288.402 283.178 288.672 283.022 288.895C282.867 289.118 282.639 289.28 282.378 289.355C281.187 289.701 279.814 289.942 277.168 290.495C273.896 291.156 270.566 291.491 267.227 291.494C260.693 291.536 258.218 289.283 258.218 289.283C257.937 289.283 258.366 287.921 258.754 281.416C258.885 279.212 259.012 276.419 259.103 272.89C259.187 269.713 259.242 265.938 259.247 261.462C259.247 256.077 267.588 250.284 267.742 250.284C267.742 251.059 268.964 252.49 270.846 252.613C273.08 252.76 275.819 251.648 275.819 250.362C275.819 250.349 279.858 256.821 281.292 263.719C281.482 264.593 281.615 265.517 281.727 266.487V266.531C281.748 266.71 281.767 266.886 281.786 267.067C281.786 267.099 281.786 267.131 281.786 267.162C281.803 267.325 281.818 267.49 281.833 267.656L281.845 267.798C281.86 267.952 281.873 268.102 281.884 268.256C281.883 268.27 281.883 268.284 281.884 268.298C281.884 268.412 281.902 268.526 281.911 268.642L281.928 268.887C281.938 269.022 281.947 269.155 281.957 269.291C281.957 269.36 281.957 269.428 281.97 269.497C281.97 269.624 281.985 269.755 281.993 269.886C281.993 269.943 281.993 270 281.993 270.059C282.004 270.249 282.014 270.439 282.023 270.629C282.023 270.646 282.023 270.659 282.023 270.676C282.023 270.866 282.042 271.045 282.05 271.231V271.368C282.059 271.543 282.067 271.717 282.074 271.896C282.074 271.921 282.074 271.947 282.074 271.974C282.093 272.404 282.111 272.843 282.126 273.289C282.127 273.3 282.127 273.311 282.126 273.323L282.168 273.283Z" fill="#2B478B"/>
<path d="M267.742 250.278C267.742 250.278 259.992 250.212 258.127 252.828C256.261 255.444 252.172 269.519 254.307 274.202C256.442 278.885 260.433 272.265 262.65 269.396C264.866 266.527 267.742 250.278 267.742 250.278Z" fill="#2B478B"/>
<path d="M267.663 249.087V249.889C267.663 249.889 267.445 252.395 270.53 252.762C273.615 253.128 275.951 251.783 275.867 249.849C275.59 248.352 275.286 247.324 275.265 246.086C275.258 245.583 275.294 245.081 275.374 244.585L269.396 244.465L267.635 244.754L267.663 249.087Z" fill="#FFB27D"/>
<path d="M267.64 244.762L267.662 249.095C268.337 249.411 269.073 249.574 269.818 249.572C272.565 249.572 274.341 247.556 275.27 246.093C275.263 245.591 275.299 245.089 275.378 244.592L269.401 244.473L267.64 244.762Z" fill="#E2915A"/>
<path d="M275.848 243.631C275.153 247.364 270.34 247.241 268.25 247.007C267.663 246.942 267.3 246.866 267.3 246.866C266.641 246.69 266.273 245.651 266.1 244.287C265.762 241.589 266.191 237.637 266.645 236.617C267.331 235.097 268.622 233.445 273.483 234.634C278.344 235.823 276.728 238.848 275.848 243.631Z" fill="#FFB27D"/>
<path d="M259.818 260.767C259.818 260.767 256.82 267.388 256.908 269.371C257.891 269.359 258.871 269.487 259.818 269.751C262.16 270.445 259.818 260.767 259.818 260.767Z" fill="#233862"/>
<path d="M265.148 233.063C266.754 232.88 268.323 232.456 269.802 231.805C271.846 230.916 274.424 231.894 275.261 232.335C275.231 232.154 275.161 231.982 275.056 231.832C275.271 231.987 275.424 232.213 275.487 232.47C275.527 232.498 275.544 232.519 275.535 232.525C275.768 232.482 276.008 232.498 276.234 232.571C276.234 232.571 276.044 232.544 275.974 232.668C275.966 232.68 275.955 232.691 275.943 232.7C279.133 234.241 279.427 239.281 278.399 240.447C277.167 241.851 275.685 245.007 275.685 245.007C275.685 245.007 275.145 244.26 275.37 243.025C275.594 241.79 274.528 241.79 273.181 241.23C271.835 240.669 272.957 239.096 271.779 238.143C270.602 237.189 266.28 237.749 266.335 237.02C264.732 236.441 265.148 233.228 265.148 233.063Z" fill="#233862"/>
<path d="M276.815 273.169C275.55 278.251 261.866 280.876 258.754 281.41C258.885 279.206 259.013 276.414 259.104 272.884L276.815 273.169Z" fill="#233862"/>
<path d="M273.811 274.82C273.94 274.82 276.85 274.385 277.375 274.124C277.899 273.864 280.281 270.473 278.718 269.605C277.154 268.737 272.964 272.211 272.964 272.211L273.811 274.82Z" fill="#FFB27D"/>
<path d="M256.102 275.827C256.102 275.827 267.363 276.438 274.919 274.82C274.919 274.82 275.109 272.637 272.735 271.666C272.735 271.666 260.957 269.17 258.127 269.865C255.297 270.56 256.102 275.827 256.102 275.827Z" fill="#2B478B"/>
<path d="M281.963 266.989C279.626 269.806 276.57 272.107 273.202 272.646C272.536 271.511 272.244 270.195 272.368 268.885C272.486 267.65 272.908 266.463 273.595 265.431C273.859 265.01 274.08 264.565 274.256 264.101C276.095 259.407 275.821 250.362 275.821 250.362C275.821 250.362 283.632 251.179 286.066 254.657C287.557 256.783 285.655 262.532 281.963 266.989Z" fill="#2B478B"/>
<path d="M268.25 247.007C267.663 246.942 267.301 246.866 267.301 246.866C266.641 246.69 266.273 245.651 266.1 244.287C267.339 244.592 267.907 245.55 268.144 245.956C268.25 246.141 268.262 246.551 268.25 247.007Z" fill="#E2915A"/>
<path d="M265.099 249.118C265.099 249.118 262.401 244.667 264.499 244.473C266.596 244.279 267.439 245.7 267.743 246.221C268.047 246.741 267.663 249.095 267.663 249.095L265.099 249.118Z" fill="#FFB27D"/>
<path d="M275.379 268.735C275.299 269.269 275.144 269.79 274.919 270.281C274.513 271.176 273.931 271.98 273.209 272.646C266.204 269.483 264.787 258.624 264.549 252.657C264.453 250.259 264.549 248.65 264.549 248.65C267.708 247.603 268.597 249.422 268.597 249.422C268.597 249.422 272.328 258.297 274.264 264.097C274.997 266.316 275.468 268.085 275.379 268.735Z" fill="#2B478B"/>
<path d="M281.963 266.989C279.626 269.806 276.57 272.107 273.202 272.646C266.197 269.483 264.779 258.624 264.542 252.657C264.542 252.657 267.857 264.683 272.368 268.885C273.183 269.645 274.038 270.15 274.919 270.281C274.919 270.281 280.618 268.672 281.803 267.158C281.889 267.05 281.94 266.995 281.963 266.989Z" fill="#233862"/>
<path d="M487.451 353.531H4.7604C4.45721 353.531 4.21143 353.777 4.21143 354.08V354.266C4.21143 354.57 4.45721 354.815 4.7604 354.815H487.451C487.754 354.815 488 354.57 488 354.266V354.08C488 353.777 487.754 353.531 487.451 353.531Z" fill="#2E3552"/>
<path d="M397.485 343.495C398.85 348.601 408.945 351.607 419.985 353.373H461.188C471.119 348.51 471.106 342.71 471.902 326.695C473.549 293.616 456.149 277.647 448.391 280.282C448.068 280.392 447.739 280.511 447.405 280.646C445.15 281.554 442.626 283.156 440.168 286.969C440.168 286.969 432.455 299.825 426.111 307.486C424.067 309.956 422.166 311.888 420.709 312.678C420.692 312.689 420.675 312.698 420.657 312.705C420.579 312.745 420.505 312.783 420.429 312.815C417.067 314.356 412.328 317.582 407.999 321.653C401.284 327.966 395.558 336.296 397.485 343.495Z" fill="#F99746"/>
<path d="M407.998 321.659C413.775 323.435 443.508 332.018 450.506 322.916C455.572 316.324 452.417 299.437 449.619 288.511C448.48 284.032 442.747 283.015 440.241 286.857L440.167 286.969C440.167 286.969 432.455 299.825 426.11 307.486C424.273 309.909 422.463 311.776 420.708 312.678C420.692 312.689 420.675 312.698 420.657 312.705C420.581 312.745 420.505 312.783 420.429 312.815C417.067 314.358 412.327 317.584 407.998 321.659Z" fill="#ED7D2B"/>
<path d="M430.115 279.926C430.115 279.926 428.054 282.966 426.886 289.385C425.856 294.999 424.954 297.072 423.466 298.223C421.979 299.374 413.699 302.782 413.699 302.782L414.318 304.234C414.318 304.234 426.456 302.581 427.82 300.552C429.184 298.523 434.381 286.536 433.978 283.775C433.576 281.015 430.115 279.926 430.115 279.926Z" fill="#F4A269"/>
<path d="M400.393 346.891C400.503 348.075 398.854 348.362 396.945 348.459C395.036 348.556 395.615 348.943 392.998 349.409C390.38 349.874 389.333 349.166 389.143 348.812C388.976 348.499 390.192 348.009 391.487 347.454C391.651 347.385 391.814 347.313 391.978 347.243C393.436 346.601 394.257 345.292 395.397 344.08C396.474 342.94 397.498 339.252 397.498 339.252L401.052 338.493C401.052 338.493 400.054 341.804 399.707 343.217C399.504 344.049 399.804 344.978 400.072 345.687C400.232 346.072 400.34 346.477 400.393 346.891Z" fill="#FFB27D"/>
<path d="M396.945 348.459C395.036 348.554 395.615 348.943 392.998 349.409C390.38 349.874 389.333 349.166 389.143 348.812C388.976 348.499 390.192 348.009 391.487 347.454L391.508 347.477C392.801 347.85 394.17 347.867 395.471 347.524C397.201 347.053 398.873 346.019 400.066 345.685C400.228 346.068 400.338 346.47 400.393 346.882C400.503 348.075 398.854 348.362 396.945 348.459Z" fill="#C65447"/>
<path d="M435.791 304.734C435.791 304.734 412.17 302.955 407.723 305.763C403.276 308.571 396.136 341.264 396.136 341.264C396.136 341.264 396.576 341.616 397.559 341.722C398.474 341.821 400.488 341.283 400.488 341.283C400.488 341.283 410.745 326.655 411.459 322.971C412.174 319.288 412.005 315.997 413.648 315.91C415.291 315.823 435.785 318.401 438.885 312.939C441.985 307.477 439.423 302.07 439.423 302.07L435.791 304.734Z" fill="#163560"/>
<path d="M409.43 350.685C409.541 351.869 407.892 352.158 405.983 352.253C404.074 352.348 404.653 352.739 402.036 353.203C399.418 353.666 398.369 352.971 398.18 352.625C398.012 352.31 399.228 351.82 400.524 351.265C400.687 351.196 400.85 351.126 401.014 351.054C402.472 350.412 403.293 349.105 404.433 347.891C405.512 346.751 406.534 343.063 406.534 343.063L410.088 342.304C410.088 342.304 409.09 345.615 408.743 347.028C408.54 347.86 408.842 348.789 409.108 349.498C409.267 349.878 409.376 350.277 409.43 350.685Z" fill="#FFB27D"/>
<path d="M405.983 352.245C404.083 352.34 404.653 352.731 402.036 353.195C399.418 353.658 398.369 352.971 398.18 352.625C398.012 352.31 399.228 351.819 400.524 351.265L400.544 351.288C401.837 351.661 403.206 351.678 404.507 351.335C406.237 350.866 407.909 349.83 409.102 349.496C409.264 349.879 409.374 350.281 409.429 350.693C409.541 351.865 407.892 352.158 405.983 352.245Z" fill="#C65447"/>
<path d="M440.416 306.198C440.416 306.198 419.434 307.192 415.099 310.169C410.764 313.146 404.91 346.094 404.91 346.094C404.91 346.094 405.364 346.428 406.351 346.496C407.267 346.561 409.26 345.945 409.26 345.945C409.26 345.945 418.932 330.937 419.517 327.217C420.102 323.498 419.791 320.228 421.43 320.076C423.069 319.924 443.655 321.704 446.533 316.127C449.411 310.549 440.416 306.198 440.416 306.198Z" fill="#1C468A"/>
<path d="M433.232 278.247C432.826 277.533 432.34 276.246 431.988 273.923C432.034 274.153 432.632 277.075 433.876 278.672C438.737 281.42 448.343 291.034 448.296 292.98C448.296 292.98 451.083 287.438 451.145 287.402C451.145 287.402 456.453 279.641 449.297 275.874C445.661 273.961 445.498 271.204 445.483 268.801C445.467 266.398 443.682 256.166 436.864 259.329C436.864 259.329 435.709 258.905 435.212 259.014C435.442 259.042 435.662 259.129 435.85 259.266C435.035 259.266 433.88 259.409 432.949 260.026C430.472 261.647 429.048 274.881 433.232 278.247Z" fill="#B5453C"/>
<path d="M441.3 276.414C440 276.305 438.693 276.305 437.392 276.414C436.228 276.537 435.087 276.824 434.002 277.265C432.152 278.038 432.345 281.311 436.226 280.705C440.107 280.099 441.57 277.394 441.3 276.414Z" fill="#FFB27D"/>
<path d="M434.163 278.802C434.14 278.813 433.608 281.619 436.15 281.505C437.818 281.433 441.416 279.415 441.098 277.985C440.946 277.307 439.687 275.545 439.432 271.526L439.129 271.607L434.024 272.977C434.024 272.977 434.25 274.597 434.355 276.131C434.446 277.417 434.448 278.644 434.163 278.802Z" fill="#FFB27D"/>
<path d="M434.024 272.975C434.024 272.975 434.25 274.596 434.355 276.129C437.246 275.855 438.6 273.112 439.129 271.605L434.024 272.975Z" fill="#F4A269"/>
<path d="M439.626 271.007C439.626 271.007 440.982 268.509 441.21 266.434C441.374 264.952 440.26 259.578 434.868 260.722C433.78 260.947 432.757 261.414 431.874 262.087C430.734 262.967 429.15 264.806 431.374 269.413L431.978 270.978L439.626 271.007Z" fill="#B5453C"/>
<path d="M433.155 274.493C433.155 274.493 440.012 274.149 439.731 269.88C439.45 265.611 440.149 262.695 435.759 262.733C431.369 262.771 430.63 264.456 430.372 265.904C430.113 267.352 431.363 274.472 433.155 274.493Z" fill="#FFB27D"/>
<path d="M432.632 262.838C432.632 262.838 434.842 267.718 437.761 268.267C440.681 268.816 441.885 267.962 441.885 267.962C440.382 266.808 439.326 265.168 438.899 263.322C438.899 263.322 433.892 260.361 432.632 262.838Z" fill="#B5453C"/>
<path d="M433.131 263.212C433.131 263.212 431.802 264.424 431.536 265.534C431.27 266.643 431.262 268.891 430.605 268.856C430.605 268.856 428.966 265.549 430.425 263.518C431.965 261.364 433.131 263.212 433.131 263.212Z" fill="#B5453C"/>
<path d="M426.293 305.091C426.848 305.754 428.572 305.959 430.432 306.263C431.889 306.504 433.42 306.804 434.508 307.445C436.978 308.896 445.057 313.801 447.426 313.579C448.343 313.492 448.172 311.74 447.615 309.415C446.74 305.744 444.909 300.645 444.909 298.428C444.909 297.218 444.506 294.355 443.968 291.082C443.925 290.818 443.881 290.552 443.835 290.284C442.774 283.918 441.299 276.415 441.299 276.415C441.299 276.415 439.658 280 436.457 280C433.257 280 434.001 277.267 434.001 277.267C434.001 277.267 431.082 277.61 430.392 278.353C429.703 279.096 427.953 282.309 427.605 283.184C427.605 283.184 427.535 284.3 430.295 284.83C430.295 284.83 429.623 287.856 429.535 289.874C429.477 291.365 430.552 296.029 430.865 298.93C430.975 299.956 430.991 300.763 430.823 301.128C430.609 301.597 429.919 302.064 429.133 302.522C427.573 303.421 425.634 304.302 426.293 305.091Z" fill="#1C468A"/>
<path d="M429.143 302.52C427.37 305.541 433.947 306.449 435.031 307.08C437.501 308.531 445.063 313.794 447.43 313.571C448.347 313.484 448.176 311.732 447.62 309.407C446.744 305.737 444.913 300.638 444.913 298.421C444.913 297.21 444.51 294.347 443.973 291.074L441.123 288.339C441.123 288.339 438.071 296.238 435.155 297.532C433.771 298.128 432.335 298.595 430.866 298.928C430.976 299.954 430.991 300.761 430.824 301.126C430.609 301.595 429.92 302.062 429.143 302.52Z" fill="#163560"/>
<path d="M442.174 278.775C442.174 278.775 444.611 277.297 446.966 280.105C449.322 282.913 445.291 302.976 441.801 304.006C437.924 305.146 426.727 303.816 426.727 303.816L426.941 302.064C426.941 302.064 438.863 299.785 439.359 299.143C439.854 298.5 440.935 279.104 442.174 278.775Z" fill="#FFB27D"/>
<path d="M441.299 276.414C441.299 276.414 446.302 276.864 447.757 278.503C449.213 280.143 449.634 284.607 449.634 284.607C449.634 284.607 445.229 288.166 439.92 286.785L441.299 276.414Z" fill="#1C468A"/>
<path d="M418.948 305.539H425.556V304.758H418.948V305.539Z" fill="#9E332E"/>
<path d="M420.351 305.433C420.287 305.174 414.273 295.744 414.273 295.744H400.9L407.607 305.188L420.351 305.433Z" fill="#9E332E"/>
<path d="M419.789 305.541C419.724 305.283 413.693 295.736 413.693 295.736H400.903L407.284 305.541H419.789Z" fill="#B5453C"/>
<path d="M408.513 300.67C408.585 300.863 408.711 301.03 408.876 301.153C409.042 301.276 409.239 301.348 409.444 301.361C409.824 301.361 410.029 301.052 409.898 300.67C409.826 300.477 409.7 300.309 409.535 300.186C409.37 300.063 409.173 299.99 408.967 299.977C408.583 299.977 408.382 300.288 408.513 300.67Z" fill="#9E332E"/>
<path d="M427.914 301.967C427.914 301.967 424.033 301.208 423.594 301.398C423.155 301.588 420.715 303.778 420.965 304.215C421.216 304.652 422.217 304.975 423.344 304.595C424.47 304.215 426.913 304.025 427.352 303.468C427.79 302.912 427.914 301.967 427.914 301.967Z" fill="#FFB27D"/>
<path d="M345.148 193.156H223.001L213.64 162.497H335.787L345.148 193.156Z" fill="#FAFDFF"/>
<path d="M331.139 172.865L332.259 176.531C332.751 178.146 331.834 179.466 330.221 179.466H229.024C227.409 179.466 225.687 178.146 225.195 176.531L224.074 172.865C223.582 171.252 224.499 169.931 226.112 169.931H327.309C328.924 169.931 330.647 171.252 331.139 172.865Z" fill="#B7D5F9"/>
<path d="M310.874 173.63H309.32L309.176 173.153H311.345L311.47 173.566L310.901 176.242H310.293L310.874 173.63Z" fill="#699DEE"/>
<path d="M312.198 174.698C311.928 173.816 312.249 173.102 313.061 173.102C313.872 173.102 314.616 173.807 314.89 174.698C315.163 175.589 314.839 176.296 314.027 176.296C313.216 176.296 312.47 175.589 312.198 174.698ZM314.329 174.698C314.139 174.09 313.678 173.59 313.201 173.59C312.724 173.59 312.569 174.077 312.758 174.698C312.948 175.319 313.404 175.805 313.887 175.805C314.369 175.805 314.517 175.315 314.329 174.698Z" fill="#699DEE"/>
<path d="M315.112 173.909C314.983 173.48 315.167 173.119 315.604 173.119C315.827 173.136 316.039 173.221 316.211 173.362C316.384 173.503 316.509 173.695 316.569 173.909C316.698 174.337 316.514 174.698 316.077 174.698C315.855 174.681 315.643 174.597 315.471 174.456C315.298 174.315 315.173 174.124 315.112 173.909ZM317.454 173.15H317.891L316.575 176.239H316.138L317.454 173.15ZM316.176 173.909C316.15 173.796 316.091 173.692 316.006 173.612C315.921 173.532 315.814 173.479 315.699 173.459C315.492 173.459 315.429 173.662 315.509 173.909C315.535 174.024 315.594 174.127 315.679 174.208C315.764 174.288 315.871 174.341 315.986 174.36C316.189 174.36 316.252 174.156 316.176 173.909ZM317.46 175.488C317.331 175.061 317.515 174.698 317.952 174.698C318.175 174.714 318.387 174.799 318.56 174.94C318.732 175.082 318.857 175.273 318.917 175.488C319.048 175.916 318.862 176.278 318.425 176.278C318.203 176.262 317.991 176.177 317.818 176.036C317.645 175.894 317.52 175.703 317.46 175.488ZM318.524 175.488C318.498 175.374 318.439 175.271 318.354 175.191C318.269 175.111 318.162 175.057 318.047 175.038C317.84 175.038 317.777 175.241 317.857 175.488C317.883 175.602 317.942 175.706 318.027 175.786C318.112 175.866 318.219 175.919 318.334 175.938C318.537 175.946 318.6 175.735 318.524 175.488Z" fill="#699DEE"/>
<path d="M294.54 169.931L297.452 179.466H229.024C227.679 179.466 226.26 178.549 225.54 177.312C225.394 177.067 225.278 176.804 225.195 176.531L224.074 172.865C223.582 171.252 224.499 169.931 226.112 169.931H294.54Z" fill="#F99746"/>
<path d="M238.223 169.931L235.339 179.466H229.023C227.678 179.466 226.259 178.549 225.54 177.312L227.772 169.931H238.223Z" fill="#ED7D2B"/>
<path d="M256.131 169.931L253.247 179.466H242.798L245.681 169.931H256.131Z" fill="#ED7D2B"/>
<path d="M274.042 169.931L271.158 179.466H260.705L263.589 169.931H274.042Z" fill="#ED7D2B"/>
<path d="M291.953 169.931L289.067 179.466H278.616L281.499 169.931H291.953Z" fill="#ED7D2B"/>
<path d="M247.583 185.112H229.307L228.922 183.853H247.199L247.583 185.112Z" fill="#AFCDFB"/>
<path d="M243.664 188.638H230.383L229.999 187.379H243.279L243.664 188.638Z" fill="#AFCDFB"/>
<path d="M252.419 188.638H244.482L244.097 187.379H252.035L252.419 188.638Z" fill="#AFCDFB"/>
<path d="M265.919 188.638H253.792L253.407 187.379H265.534L265.919 188.638Z" fill="#AFCDFB"/>
<path d="M254.491 185.112H248.958L248.572 183.853H254.106L254.491 185.112Z" fill="#AFCDFB"/>
<path d="M276.507 185.112H256.385L256 183.853H276.122L276.507 185.112Z" fill="#AFCDFB"/>
<path d="M180.276 239.431H94.3474L80.9897 195.686H166.92L180.276 239.431Z" fill="#FAFDFF"/>
<path d="M168.147 217.559H93.1187L87.4429 198.967H162.472L168.147 217.559Z" fill="#4A75CB"/>
<path d="M105.456 202.746H92.7463L92.4424 201.754H105.152L105.456 202.746Z" fill="#CAE0FF"/>
<path d="M119.049 202.746H108.478L108.176 201.754H118.747L119.049 202.746Z" fill="#CAE0FF"/>
<path d="M143.65 202.746H121.803L121.501 201.754H143.348L143.65 202.746Z" fill="#CAE0FF"/>
<path d="M106.541 206.299H93.8308L93.5269 205.307H106.237L106.541 206.299Z" fill="#CAE0FF"/>
<path d="M120.134 206.299H109.565L109.261 205.307H119.832L120.134 206.299Z" fill="#CAE0FF"/>
<path d="M132.618 206.299H122.049L121.745 205.307H132.316L132.618 206.299Z" fill="#CAE0FF"/>
<path d="M157.667 206.713H135.82L135.516 205.721H157.365L157.667 206.713Z" fill="#CAE0FF"/>
<path d="M107.916 210.805H95.2058L94.9038 209.813H107.614L107.916 210.805Z" fill="#CAE0FF"/>
<path d="M121.509 210.805H110.94L110.636 209.813H121.207L121.509 210.805Z" fill="#CAE0FF"/>
<path d="M146.112 210.805H124.263L123.961 209.813H145.808L146.112 210.805Z" fill="#CAE0FF"/>
<path d="M109.001 214.357H96.2908L95.9888 213.366H108.699L109.001 214.357Z" fill="#CAE0FF"/>
<path d="M122.596 214.357H112.025L111.723 213.366H122.292L122.596 214.357Z" fill="#CAE0FF"/>
<path d="M135.077 214.357H124.508L124.206 213.366H134.775L135.077 214.357Z" fill="#CAE0FF"/>
<path d="M160.129 214.772H138.28L137.978 213.78H159.825L160.129 214.772Z" fill="#CAE0FF"/>
<path d="M143.428 232.96C140.516 232.96 137.423 230.589 136.534 227.677C135.645 224.764 137.294 222.395 140.202 222.395C143.111 222.395 146.207 224.764 147.098 227.677C147.989 230.589 146.34 232.96 143.428 232.96ZM140.497 223.359C138.117 223.359 136.772 225.296 137.497 227.677C138.223 230.057 140.753 231.989 143.133 231.989C145.514 231.989 146.86 230.052 146.133 227.671C145.405 225.291 142.879 223.359 140.497 223.359Z" fill="#A8D29F"/>
<path d="M142.53 230.363C142.311 230.343 142.103 230.257 141.933 230.118L138.938 227.745C138.533 227.424 138.391 226.915 138.617 226.605C138.843 226.296 139.355 226.311 139.756 226.632L141.874 228.308L142.913 225.826C143.063 225.467 143.542 225.388 143.981 225.636C144.42 225.885 144.653 226.396 144.503 226.759L143.136 230.023C143.093 230.12 143.024 230.202 142.936 230.261C142.848 230.319 142.745 230.351 142.64 230.354C142.603 230.359 142.567 230.363 142.53 230.363Z" fill="#A8D29F"/>
<path d="M128.317 232.96C125.404 232.96 122.311 230.589 121.422 227.677C120.533 224.764 122.182 222.395 125.09 222.395C127.998 222.395 131.102 224.77 131.986 227.677C132.869 230.584 131.229 232.96 128.317 232.96ZM125.385 223.359C123.004 223.359 121.66 225.296 122.387 227.677C123.115 230.057 125.641 231.989 128.021 231.989C130.401 231.989 131.748 230.052 131.021 227.671C130.293 225.291 127.767 223.359 125.385 223.359Z" fill="#A8D29F"/>
<path d="M127.417 230.363C127.199 230.343 126.992 230.257 126.822 230.118L123.827 227.745C123.422 227.424 123.278 226.915 123.504 226.605C123.73 226.296 124.243 226.311 124.644 226.632L126.76 228.308L127.799 225.826C127.951 225.467 128.427 225.388 128.866 225.636C129.305 225.885 129.541 226.396 129.389 226.759L128.021 230.023C127.978 230.119 127.909 230.202 127.822 230.26C127.735 230.319 127.632 230.351 127.527 230.354C127.491 230.359 127.454 230.363 127.417 230.363Z" fill="#A8D29F"/>
<path d="M112.663 232.96C109.751 232.96 106.656 230.589 105.767 227.677C104.878 224.764 106.527 222.395 109.437 222.395C112.347 222.395 115.442 224.764 116.331 227.677C117.22 230.589 115.575 232.96 112.663 232.96ZM109.732 223.359C107.35 223.359 106.005 225.296 106.732 227.677C107.46 230.057 109.986 231.989 112.368 231.989C114.75 231.989 116.093 230.052 115.366 227.671C114.638 225.291 112.106 223.359 109.732 223.359Z" fill="#A8D29F"/>
<path d="M111.763 230.363C111.545 230.342 111.338 230.257 111.168 230.118L108.173 227.745C107.768 227.424 107.624 226.915 107.852 226.605C108.08 226.296 108.591 226.311 108.992 226.632L111.108 228.308L112.149 225.826C112.299 225.467 112.777 225.388 113.216 225.636C113.655 225.885 113.889 226.396 113.739 226.759L112.371 230.023C112.328 230.119 112.258 230.201 112.171 230.26C112.083 230.318 111.98 230.351 111.875 230.354C111.838 230.359 111.801 230.363 111.763 230.363Z" fill="#A8D29F"/>
<path d="M158.009 232.96C155.097 232.96 152.002 230.589 151.113 227.677C150.224 224.764 151.873 222.395 154.783 222.395C157.694 222.395 160.788 224.77 161.685 227.677C162.581 230.584 160.925 232.96 158.009 232.96ZM155.078 223.359C152.698 223.359 151.351 225.296 152.078 227.677C152.806 230.057 155.334 231.989 157.714 231.989C160.095 231.989 161.439 230.052 160.712 227.671C159.984 225.291 157.458 223.359 155.078 223.359Z" fill="#F1A34F"/>
<path d="M156.66 228.541C156.442 228.528 156.232 228.45 156.058 228.317C155.884 228.184 155.754 228.002 155.684 227.795L155 225.551C154.875 225.139 155.108 224.802 155.519 224.802C155.737 224.816 155.947 224.895 156.12 225.028C156.294 225.161 156.424 225.343 156.493 225.551L157.179 227.795C157.304 228.205 157.071 228.541 156.66 228.541Z" fill="#F1A34F"/>
<path d="M157.278 230.302H157.126C156.931 230.29 156.744 230.22 156.589 230.102C156.434 229.983 156.318 229.821 156.256 229.636C156.224 229.561 156.211 229.479 156.219 229.399C156.227 229.318 156.256 229.241 156.302 229.174C156.349 229.107 156.412 229.054 156.484 229.018C156.557 228.983 156.638 228.966 156.719 228.971H156.881C157.075 228.982 157.262 229.052 157.417 229.17C157.572 229.289 157.688 229.451 157.751 229.636C157.784 229.711 157.797 229.794 157.788 229.875C157.78 229.957 157.75 230.036 157.703 230.103C157.655 230.17 157.591 230.224 157.517 230.259C157.442 230.294 157.36 230.309 157.278 230.302Z" fill="#F1A34F"/>
<path d="M363.353 230.72C363.353 230.72 374.22 241.99 374.735 246.23C375.25 250.47 369.529 257.095 369.529 257.095L363.353 230.72Z" fill="#ED7D2B"/>
<path d="M358.443 347.517C358.443 347.517 358.063 353.495 356.902 353.577C356.748 353.588 351.037 353.577 351.037 353.577L343.744 353.518C343.744 353.518 343.795 351.761 345.929 351.394C348.062 351.027 351.627 349.538 352.928 346.722C354.3 343.761 358.443 347.517 358.443 347.517Z" fill="#163560"/>
<path d="M374.684 347.553C374.684 347.553 374.304 353.529 373.143 353.613C372.989 353.624 367.277 353.613 367.277 353.613L359.985 353.556C359.985 353.556 360.036 351.799 362.169 351.432C364.303 351.065 367.868 349.574 369.169 346.76C370.533 343.797 374.684 347.553 374.684 347.553Z" fill="#163560"/>
<path d="M350.501 283.245C350.501 283.245 352.382 295.447 359.448 317.118C366.514 338.789 367.464 348.166 367.464 348.166L375.096 347.976C375.096 347.976 375.214 324.311 371.958 313.416C368.702 302.52 371.337 274.157 371.337 274.157L350.501 283.245Z" fill="#163560"/>
<path d="M346.81 274.765C346.81 274.765 346.5 293.145 349.631 315.724C352.761 338.303 351.663 347.879 351.663 347.879L359.28 348.149C359.28 348.149 363.881 325.58 362.601 314.28C361.32 302.98 368.917 275.525 368.917 275.525L346.81 274.765Z" fill="#1C468A"/>
<path d="M361.649 231.778L357.584 234.438L351.722 233.319C351.804 232.846 352.195 230.884 352.552 229.107C352.573 229.003 352.596 228.896 352.615 228.796C352.921 227.276 353.185 225.984 353.185 225.984L358.669 223.585L360.713 222.688C360.713 222.72 360.551 224.367 360.523 224.607C360.135 228.876 361.649 231.778 361.649 231.778Z" fill="#FFB27D"/>
<path d="M353.231 230.418C353.345 230.369 360.299 228.328 361.053 228.585C361.807 228.841 362.25 230.295 362.25 230.295L350.881 232.842C350.881 232.842 351.777 231.026 353.231 230.418Z" fill="#ED7D2B"/>
<path d="M371.841 277.088C370.652 282.459 351.048 283.053 346.007 278.165C345.437 277.607 345.41 275.021 345.636 271.533C346.075 264.719 347.458 254.471 347.523 249.234C347.58 246.725 347.865 244.228 348.376 241.771C348.981 238.735 349.819 235.75 350.881 232.842C350.881 232.842 360.462 229.767 362.252 230.299C370.876 232.852 373.032 271.716 371.841 277.088Z" fill="#F99746"/>
<path d="M345.634 271.533C346.073 264.719 347.456 254.471 347.521 249.234C347.577 246.725 347.863 244.228 348.373 241.771L354.135 240.768C354.135 240.768 359.716 263.782 345.634 271.533Z" fill="#ED7D2B"/>
<path d="M348.772 262.042C348.879 262.315 348.895 262.615 348.816 262.898C348.738 263.181 348.57 263.43 348.337 263.609C347.511 264.238 346.975 265.256 347.162 266.003C347.348 266.75 349.156 267.971 349.783 267.775C350.41 267.58 351.682 266.601 351.551 266.208C351.42 265.815 352.418 262.756 350.892 261.575C349.367 260.393 348.772 262.042 348.772 262.042Z" fill="#FFB27D"/>
<path d="M355.28 231.473C355.28 231.473 349.659 232.512 345.171 239.098C340.682 245.685 337.724 250.584 338.545 252.967C339.366 255.349 346.861 263.605 348.157 263.605C349.452 263.605 351.545 262.671 351.667 260.551C351.667 260.551 346.394 252.608 347.439 251.422C347.885 250.915 354.321 245.723 355.227 248.071C356.741 251.975 355.28 231.473 355.28 231.473Z" fill="#F99746"/>
<path d="M360.116 224.681C358.91 226.716 354.418 228.469 352.552 229.113C352.573 229.009 352.596 228.902 352.615 228.801C352.921 227.282 353.185 225.99 353.185 225.99L358.669 223.585C359.879 223.571 360.614 223.843 360.116 224.681Z" fill="#FCA56B"/>
<path d="M351.12 225.652C351.12 225.652 359.938 228.425 361.579 222.906C363.22 217.388 365.466 214.029 359.904 212.026C354.342 210.024 352.619 211.8 351.624 213.51C350.628 215.22 348.869 224.789 351.12 225.652Z" fill="#FFB27D"/>
<path d="M351.971 212.978C351.971 212.978 352.52 219.405 353.848 219.13C355.176 218.854 356.384 218.649 356.185 220.587C355.985 222.525 354.139 224.755 358.232 225.106C362.326 225.458 368.237 214.908 367.117 212.908C363.884 207.131 347.295 205.93 351.971 212.978Z" fill="#163560"/>
<g opacity="0.5">
<path opacity="0.5" d="M168.692 165.421V163.856H170.305V165.421H168.692Z" fill="#AFCDFB"/>
<path opacity="0.5" d="M168.692 162.254V160.689H170.305V162.254H168.692Z" fill="#AFCDFB"/>
<path opacity="0.5" d="M168.692 159.087V157.518H170.305V159.084L168.692 159.087Z" fill="#AFCDFB"/>
<path opacity="0.5" d="M168.692 155.922V154.355H170.305V155.922H168.692Z" fill="#AFCDFB"/>
<path opacity="0.5" d="M168.692 152.755V151.19H170.305V152.755H168.692Z" fill="#AFCDFB"/>
<path opacity="0.5" d="M168.692 149.588V148.019H170.305V149.585L168.692 149.588Z" fill="#AFCDFB"/>
<path opacity="0.5" d="M168.692 146.422V144.856H170.305V146.422H168.692Z" fill="#AFCDFB"/>
<path opacity="0.5" d="M168.692 143.255V141.689H170.305V143.255H168.692Z" fill="#AFCDFB"/>
<path opacity="0.5" d="M168.692 140.09V138.52H170.305V140.088L168.692 140.09Z" fill="#AFCDFB"/>
<path opacity="0.5" d="M168.692 136.923V135.355H170.305V136.923H168.692Z" fill="#AFCDFB"/>
<path opacity="0.5" d="M168.692 133.756V132.19H170.305V133.756H168.692Z" fill="#AFCDFB"/>
<path opacity="0.5" d="M168.692 130.589V129.022H170.305V130.587L168.692 130.589Z" fill="#AFCDFB"/>
<path opacity="0.5" d="M168.692 127.422V125.857H170.305V127.422H168.692Z" fill="#AFCDFB"/>
<path opacity="0.5" d="M168.692 124.255V122.69H170.305V124.255H168.692Z" fill="#AFCDFB"/>
<path opacity="0.5" d="M168.692 121.09V119.523H170.305V121.09H168.692Z" fill="#AFCDFB"/>
<path opacity="0.5" d="M168.692 117.923V116.358H170.305V117.923H168.692Z" fill="#AFCDFB"/>
<path opacity="0.5" d="M168.692 114.756V113.191H170.305V114.756H168.692Z" fill="#AFCDFB"/>
<path opacity="0.5" d="M168.692 111.589V110.024H170.305V111.589H168.692Z" fill="#AFCDFB"/>
</g>
<g opacity="0.5">
<path opacity="0.5" d="M163.761 146.422V144.856H165.374V146.422H163.761Z" fill="#AFCDFB"/>
<path opacity="0.5" d="M163.761 143.255V141.689H165.374V143.255H163.761Z" fill="#AFCDFB"/>
<path opacity="0.5" d="M163.761 140.09V138.52H165.374V140.088L163.761 140.09Z" fill="#AFCDFB"/>
<path opacity="0.5" d="M163.761 136.923V135.355H165.374V136.923H163.761Z" fill="#AFCDFB"/>
<path opacity="0.5" d="M163.761 133.756V132.19H165.374V133.756H163.761Z" fill="#AFCDFB"/>
<path opacity="0.5" d="M163.761 130.589V129.022H165.374V130.587L163.761 130.589Z" fill="#AFCDFB"/>
<path opacity="0.5" d="M163.761 127.422V125.857H165.374V127.422H163.761Z" fill="#AFCDFB"/>
<path opacity="0.5" d="M163.761 124.255V122.69H165.374V124.255H163.761Z" fill="#AFCDFB"/>
<path opacity="0.5" d="M163.761 121.09V119.523H165.374V121.09H163.761Z" fill="#AFCDFB"/>
<path opacity="0.5" d="M163.761 117.923V116.358H165.374V117.923H163.761Z" fill="#AFCDFB"/>
<path opacity="0.5" d="M163.761 114.756V113.191H165.374V114.756H163.761Z" fill="#AFCDFB"/>
<path opacity="0.5" d="M163.762 111.589V110.024H165.375V111.589H163.762Z" fill="#AFCDFB"/>
</g>
<g opacity="0.5">
<path opacity="0.5" d="M158.739 165.421V163.856H160.355V165.421H158.739Z" fill="#AFCDFB"/>
<path opacity="0.5" d="M158.739 162.254V160.689H160.355V162.254H158.739Z" fill="#AFCDFB"/>
<path opacity="0.5" d="M158.739 159.087V157.518H160.355V159.084L158.739 159.087Z" fill="#AFCDFB"/>
<path opacity="0.5" d="M158.739 155.922V154.355H160.355V155.922H158.739Z" fill="#AFCDFB"/>
<path opacity="0.5" d="M158.739 152.755V151.19H160.355V152.755H158.739Z" fill="#AFCDFB"/>
<path opacity="0.5" d="M158.739 149.588V148.019H160.355V149.585L158.739 149.588Z" fill="#AFCDFB"/>
<path opacity="0.5" d="M158.739 146.422V144.856H160.355V146.422H158.739Z" fill="#AFCDFB"/>
<path opacity="0.5" d="M158.739 143.255V141.689H160.355V143.255H158.739Z" fill="#AFCDFB"/>
<path opacity="0.5" d="M158.739 140.09V138.52H160.355V140.088L158.739 140.09Z" fill="#AFCDFB"/>
<path opacity="0.5" d="M158.739 136.923V135.355H160.355V136.923H158.739Z" fill="#AFCDFB"/>
<path opacity="0.5" d="M158.739 133.756V132.19H160.355V133.756H158.739Z" fill="#AFCDFB"/>
<path opacity="0.5" d="M158.739 130.589V129.022H160.355V130.587L158.739 130.589Z" fill="#AFCDFB"/>
<path opacity="0.5" d="M158.739 127.422V125.857H160.355V127.422H158.739Z" fill="#AFCDFB"/>
<path opacity="0.5" d="M158.739 124.255V122.69H160.355V124.255H158.739Z" fill="#AFCDFB"/>
<path opacity="0.5" d="M158.739 121.09V119.523H160.355V121.09H158.739Z" fill="#AFCDFB"/>
<path opacity="0.5" d="M158.739 117.923V116.358H160.355V117.923H158.739Z" fill="#AFCDFB"/>
<path opacity="0.5" d="M158.739 114.756V113.191H160.355V114.756H158.739Z" fill="#AFCDFB"/>
<path opacity="0.5" d="M158.739 111.589V110.024H160.356V111.589H158.739Z" fill="#AFCDFB"/>
</g>
<g opacity="0.5">
<path opacity="0.5" d="M154.51 171.755V170.188H156.123V171.755H154.51Z" fill="#AFCDFB"/>
<path opacity="0.5" d="M154.51 168.588V167.017H156.123V168.582L154.51 168.588Z" fill="#AFCDFB"/>
<path opacity="0.5" d="M154.51 165.421V163.856H156.123V165.421H154.51Z" fill="#AFCDFB"/>
<path opacity="0.5" d="M154.51 162.254V160.689H156.123V162.254H154.51Z" fill="#AFCDFB"/>
<path opacity="0.5" d="M154.51 159.087V157.518H156.123V159.084L154.51 159.087Z" fill="#AFCDFB"/>
<path opacity="0.5" d="M154.51 155.922V154.355H156.123V155.922H154.51Z" fill="#AFCDFB"/>
<path opacity="0.5" d="M154.51 152.755V151.19H156.123V152.755H154.51Z" fill="#AFCDFB"/>
<path opacity="0.5" d="M154.51 149.588V148.019H156.123V149.585L154.51 149.588Z" fill="#AFCDFB"/>
<path opacity="0.5" d="M154.51 146.422V144.856H156.123V146.422H154.51Z" fill="#AFCDFB"/>
<path opacity="0.5" d="M154.51 143.255V141.689H156.123V143.255H154.51Z" fill="#AFCDFB"/>
<path opacity="0.5" d="M154.51 140.09V138.52H156.123V140.088L154.51 140.09Z" fill="#AFCDFB"/>
<path opacity="0.5" d="M154.51 136.923V135.355H156.123V136.923H154.51Z" fill="#AFCDFB"/>
<path opacity="0.5" d="M154.51 133.756V132.19H156.123V133.756H154.51Z" fill="#AFCDFB"/>
<path opacity="0.5" d="M154.51 130.589V129.022H156.123V130.587L154.51 130.589Z" fill="#AFCDFB"/>
<path opacity="0.5" d="M154.51 127.422V125.857H156.123V127.422H154.51Z" fill="#AFCDFB"/>
<path opacity="0.5" d="M154.51 124.255V122.69H156.123V124.255H154.51Z" fill="#AFCDFB"/>
<path opacity="0.5" d="M154.51 121.09V119.523H156.123V121.09H154.51Z" fill="#AFCDFB"/>
<path opacity="0.5" d="M154.51 117.923V116.358H156.123V117.923H154.51Z" fill="#AFCDFB"/>
<path opacity="0.5" d="M154.51 114.756V113.191H156.123V114.756H154.51Z" fill="#AFCDFB"/>
<path opacity="0.5" d="M154.51 111.589V110.024H156.123V111.589H154.51Z" fill="#AFCDFB"/>
</g>
<g opacity="0.5">
<path opacity="0.5" d="M148.929 143.255V141.689H150.542V143.255H148.929Z" fill="#AFCDFB"/>
<path opacity="0.5" d="M148.929 140.09V138.52H150.542V140.088L148.929 140.09Z" fill="#AFCDFB"/>
<path opacity="0.5" d="M148.929 136.923V135.355H150.542V136.923H148.929Z" fill="#AFCDFB"/>
<path opacity="0.5" d="M148.929 133.756V132.19H150.542V133.756H148.929Z" fill="#AFCDFB"/>
<path opacity="0.5" d="M148.929 130.589V129.022H150.542V130.587L148.929 130.589Z" fill="#AFCDFB"/>
<path opacity="0.5" d="M148.929 127.422V125.857H150.542V127.422H148.929Z" fill="#AFCDFB"/>
<path opacity="0.5" d="M148.929 124.255V122.69H150.542V124.255H148.929Z" fill="#AFCDFB"/>
<path opacity="0.5" d="M148.929 121.09V119.523H150.542V121.09H148.929Z" fill="#AFCDFB"/>
<path opacity="0.5" d="M148.929 117.923V116.358H150.542V117.923H148.929Z" fill="#AFCDFB"/>
<path opacity="0.5" d="M148.929 114.756V113.191H150.542V114.756H148.929Z" fill="#AFCDFB"/>
<path opacity="0.5" d="M148.93 111.589V110.024H150.543V111.589H148.93Z" fill="#AFCDFB"/>
</g>
<g opacity="0.5">
<path opacity="0.5" d="M392.308 224.069V225.635H390.695V224.069H392.308Z" fill="#AFCDFB"/>
<path opacity="0.5" d="M392.308 227.24V228.807H390.695V227.24H392.308Z" fill="#AFCDFB"/>
<path opacity="0.5" d="M392.308 230.401V231.967H390.695V230.401H392.308Z" fill="#AFCDFB"/>
<path opacity="0.5" d="M392.308 233.568V235.133H390.695V233.568H392.308Z" fill="#AFCDFB"/>
<path opacity="0.5" d="M392.308 236.739V238.304H390.695V236.739H392.308Z" fill="#AFCDFB"/>
<path opacity="0.5" d="M392.308 239.902V241.467H390.695V239.902H392.308Z" fill="#AFCDFB"/>
<path opacity="0.5" d="M392.308 243.067V244.634H390.695V243.067H392.308Z" fill="#AFCDFB"/>
<path opacity="0.5" d="M392.308 246.238V247.805H390.695V246.238H392.308Z" fill="#AFCDFB"/>
<path opacity="0.5" d="M392.308 249.401V250.966H390.695V249.401H392.308Z" fill="#AFCDFB"/>
<path opacity="0.5" d="M392.308 252.568V254.133H390.695V252.568H392.308Z" fill="#AFCDFB"/>
<path opacity="0.5" d="M392.308 255.737V257.302H390.695V255.737H392.308Z" fill="#AFCDFB"/>
<path opacity="0.5" d="M392.308 258.902V260.467H390.695V258.902H392.308Z" fill="#AFCDFB"/>
<path opacity="0.5" d="M392.308 262.067V263.634H390.695V262.067H392.308Z" fill="#AFCDFB"/>
<path opacity="0.5" d="M392.308 265.235V266.801H390.695V265.235H392.308Z" fill="#AFCDFB"/>
<path opacity="0.5" d="M392.308 268.4V269.966H390.695V268.4H392.308Z" fill="#AFCDFB"/>
<path opacity="0.5" d="M392.308 271.567V273.133H390.695V271.567H392.308Z" fill="#AFCDFB"/>
<path opacity="0.5" d="M392.308 274.734V276.3H390.695V274.734H392.308Z" fill="#AFCDFB"/>
<path opacity="0.5" d="M392.308 277.899V279.467H390.695V277.899H392.308Z" fill="#AFCDFB"/>
</g>
<g opacity="0.5">
<path opacity="0.5" d="M397.23 243.067V244.634H395.618V243.067H397.23Z" fill="#AFCDFB"/>
<path opacity="0.5" d="M397.23 246.238V247.805H395.617V246.238H397.23Z" fill="#AFCDFB"/>
<path opacity="0.5" d="M397.23 249.401V250.966H395.617V249.401H397.23Z" fill="#AFCDFB"/>
<path opacity="0.5" d="M397.23 252.568V254.133H395.617V252.568H397.23Z" fill="#AFCDFB"/>
<path opacity="0.5" d="M397.23 255.737V257.302H395.617V255.737H397.23Z" fill="#AFCDFB"/>
<path opacity="0.5" d="M397.23 258.902V260.467H395.617V258.902H397.23Z" fill="#AFCDFB"/>
<path opacity="0.5" d="M397.23 262.067V263.634H395.617V262.067H397.23Z" fill="#AFCDFB"/>
<path opacity="0.5" d="M397.23 265.235V266.801H395.617V265.235H397.23Z" fill="#AFCDFB"/>
<path opacity="0.5" d="M397.23 268.4V269.966H395.617V268.4H397.23Z" fill="#AFCDFB"/>
<path opacity="0.5" d="M397.23 271.567V273.133H395.617V271.567H397.23Z" fill="#AFCDFB"/>
<path opacity="0.5" d="M397.23 274.734V276.3H395.617V274.734H397.23Z" fill="#AFCDFB"/>
<path opacity="0.5" d="M397.23 277.899V279.467H395.617V277.899H397.23Z" fill="#AFCDFB"/>
</g>
<g opacity="0.5">
<path opacity="0.5" d="M402.261 224.069V225.635H400.65V224.069H402.261Z" fill="#AFCDFB"/>
<path opacity="0.5" d="M402.26 227.24V228.807H400.649V227.24H402.26Z" fill="#AFCDFB"/>
<path opacity="0.5" d="M402.26 230.401V231.967H400.649V230.401H402.26Z" fill="#AFCDFB"/>
<path opacity="0.5" d="M402.26 233.568V235.133H400.649V233.568H402.26Z" fill="#AFCDFB"/>
<path opacity="0.5" d="M402.26 236.739V238.304H400.649V236.739H402.26Z" fill="#AFCDFB"/>
<path opacity="0.5" d="M402.26 239.902V241.467H400.649V239.902H402.26Z" fill="#AFCDFB"/>
<path opacity="0.5" d="M402.26 243.067V244.634H400.649V243.067H402.26Z" fill="#AFCDFB"/>
<path opacity="0.5" d="M402.26 246.238V247.805H400.649V246.238H402.26Z" fill="#AFCDFB"/>
<path opacity="0.5" d="M402.26 249.401V250.966H400.649V249.401H402.26Z" fill="#AFCDFB"/>
<path opacity="0.5" d="M402.26 252.568V254.133H400.649V252.568H402.26Z" fill="#AFCDFB"/>
<path opacity="0.5" d="M402.26 255.737V257.302H400.649V255.737H402.26Z" fill="#AFCDFB"/>
<path opacity="0.5" d="M402.26 258.902V260.467H400.649V258.902H402.26Z" fill="#AFCDFB"/>
<path opacity="0.5" d="M402.26 262.067V263.634H400.649V262.067H402.26Z" fill="#AFCDFB"/>
<path opacity="0.5" d="M402.26 265.235V266.801H400.649V265.235H402.26Z" fill="#AFCDFB"/>
<path opacity="0.5" d="M402.26 268.4V269.966H400.649V268.4H402.26Z" fill="#AFCDFB"/>
<path opacity="0.5" d="M402.26 271.567V273.133H400.649V271.567H402.26Z" fill="#AFCDFB"/>
<path opacity="0.5" d="M402.26 274.734V276.3H400.649V274.734H402.26Z" fill="#AFCDFB"/>
<path opacity="0.5" d="M402.26 277.899V279.467H400.649V277.899H402.26Z" fill="#AFCDFB"/>
</g>
<g opacity="0.5">
<path opacity="0.5" d="M406.491 217.741V219.306H404.878V217.741H406.491Z" fill="#AFCDFB"/>
<path opacity="0.5" d="M406.49 220.902V222.468H404.877V220.902H406.49Z" fill="#AFCDFB"/>
<path opacity="0.5" d="M406.49 224.069V225.635H404.877V224.069H406.49Z" fill="#AFCDFB"/>
<path opacity="0.5" d="M406.49 227.24V228.807H404.877V227.24H406.49Z" fill="#AFCDFB"/>
<path opacity="0.5" d="M406.49 230.401V231.967H404.877V230.401H406.49Z" fill="#AFCDFB"/>
<path opacity="0.5" d="M406.49 233.568V235.133H404.877V233.568H406.49Z" fill="#AFCDFB"/>
<path opacity="0.5" d="M406.49 236.739V238.304H404.877V236.739H406.49Z" fill="#AFCDFB"/>
<path opacity="0.5" d="M406.49 239.902V241.467H404.877V239.902H406.49Z" fill="#AFCDFB"/>
<path opacity="0.5" d="M406.49 243.067V244.634H404.877V243.067H406.49Z" fill="#AFCDFB"/>
<path opacity="0.5" d="M406.49 246.238V247.805H404.877V246.238H406.49Z" fill="#AFCDFB"/>
<path opacity="0.5" d="M406.49 249.401V250.966H404.877V249.401H406.49Z" fill="#AFCDFB"/>
<path opacity="0.5" d="M406.49 252.568V254.133H404.877V252.568H406.49Z" fill="#AFCDFB"/>
<path opacity="0.5" d="M406.49 255.736V257.302H404.877V255.736H406.49Z" fill="#AFCDFB"/>
<path opacity="0.5" d="M406.49 258.902V260.467H404.877V258.902H406.49Z" fill="#AFCDFB"/>
<path opacity="0.5" d="M406.49 262.066V263.634H404.877V262.066H406.49Z" fill="#AFCDFB"/>
<path opacity="0.5" d="M406.49 265.235V266.801H404.877V265.235H406.49Z" fill="#AFCDFB"/>
<path opacity="0.5" d="M406.49 268.4V269.966H404.877V268.4H406.49Z" fill="#AFCDFB"/>
<path opacity="0.5" d="M406.49 271.567V273.133H404.877V271.567H406.49Z" fill="#AFCDFB"/>
<path opacity="0.5" d="M406.49 274.734V276.3H404.877V274.734H406.49Z" fill="#AFCDFB"/>
<path opacity="0.5" d="M406.49 277.899V279.467H404.877V277.899H406.49Z" fill="#AFCDFB"/>
</g>
<g opacity="0.5">
<path opacity="0.5" d="M412.072 246.238V247.805H410.459V246.238H412.072Z" fill="#AFCDFB"/>
<path opacity="0.5" d="M412.071 249.401V250.966H410.458V249.401H412.071Z" fill="#AFCDFB"/>
<path opacity="0.5" d="M412.071 252.568V254.133H410.458V252.568H412.071Z" fill="#AFCDFB"/>
<path opacity="0.5" d="M412.071 255.737V257.302H410.458V255.737H412.071Z" fill="#AFCDFB"/>
<path opacity="0.5" d="M412.071 258.902V260.467H410.458V258.902H412.071Z" fill="#AFCDFB"/>
<path opacity="0.5" d="M412.071 262.067V263.634H410.458V262.067H412.071Z" fill="#AFCDFB"/>
<path opacity="0.5" d="M412.071 265.235V266.801H410.458V265.235H412.071Z" fill="#AFCDFB"/>
<path opacity="0.5" d="M412.071 268.4V269.966H410.458V268.4H412.071Z" fill="#AFCDFB"/>
<path opacity="0.5" d="M412.071 271.567V273.133H410.458V271.567H412.071Z" fill="#AFCDFB"/>
<path opacity="0.5" d="M412.071 274.734V276.3H410.458V274.734H412.071Z" fill="#AFCDFB"/>
<path opacity="0.5" d="M412.071 277.899V279.467H410.458V277.899H412.071Z" fill="#AFCDFB"/>
</g>
<path d="M157.671 336.368C153.48 347.33 140.319 355.464 128.294 354.555C132.505 343.666 145.666 335.501 157.671 336.368Z" fill="#1D6468"/>
<path d="M95.8105 337.297C108.435 333.808 124.713 340.972 132.114 353.296C119.479 356.795 103.232 349.632 95.8105 337.297Z" fill="#1D6468"/>
<path d="M150.828 307.29C149.86 315.397 147.776 323.331 144.635 330.866C141.68 338.529 137.693 345.752 132.785 352.336C131.994 350.538 131.389 348.663 130.979 346.742C130.596 344.63 130.416 342.487 130.442 340.342C130.519 338.047 130.781 335.762 131.226 333.509C131.761 331.184 132.451 328.898 133.291 326.665C134.232 324.464 135.315 322.326 136.532 320.265C137.76 318.302 139.14 316.438 140.661 314.691C142.142 313.073 143.77 311.594 145.523 310.274C147.189 309.107 148.966 308.108 150.828 307.29Z" fill="#257C86"/>
<path d="M98.2051 315.393C100.26 315.405 102.309 315.608 104.326 316.002C104.858 316.094 105.383 316.225 105.895 316.395C106.411 316.549 106.927 316.715 107.454 316.89C108.486 317.251 109.518 317.654 110.55 318.098L111.345 318.449L112.099 318.851C112.594 319.13 113.131 319.409 113.595 319.708C114.628 320.296 115.598 320.926 116.579 321.587C118.486 323.024 120.293 324.59 121.987 326.273C123.584 328.044 125.057 329.924 126.395 331.898C127.014 332.924 127.592 333.956 128.129 334.995C128.408 335.511 128.666 336.027 128.913 336.543L129.285 337.318L129.584 338.123C129.987 339.155 130.338 340.27 130.617 341.323C130.761 341.859 130.906 342.355 131.04 342.902C131.181 343.424 131.284 343.955 131.349 344.491C131.643 346.525 131.747 348.581 131.659 350.633C124.949 346.004 118.785 340.63 113.286 334.613C107.546 328.799 102.487 322.351 98.2051 315.393Z" fill="#257C86"/>
<path d="M119.19 293.748C130.679 308.653 136.542 335.604 132.289 353.936C120.8 339.072 114.937 312.08 119.19 293.748Z" fill="#1D6468"/>
<path d="M301.644 343.748C304.142 350.22 311.966 355.103 319.057 354.556C316.559 348.073 308.797 343.242 301.644 343.748Z" fill="#1D6468"/>
<path d="M338.308 344.295C330.835 342.231 321.204 346.473 316.797 353.781C324.28 355.856 333.911 351.603 338.308 344.295Z" fill="#1D6468"/>
<path d="M305.7 326.521C306.265 331.323 307.495 336.023 309.354 340.486C311.103 345.029 313.464 349.311 316.373 353.214C316.829 352.147 317.175 351.037 317.405 349.9C317.635 348.647 317.742 347.375 317.725 346.102C317.685 344.742 317.53 343.389 317.261 342.055C316.948 340.677 316.541 339.322 316.043 337.999C315.49 336.696 314.852 335.43 314.133 334.211C313.393 333.045 312.561 331.941 311.646 330.907C310.772 329.947 309.811 329.07 308.776 328.286C307.808 327.603 306.778 327.012 305.7 326.521Z" fill="#257C86"/>
<path d="M336.883 331.32C335.667 331.329 334.454 331.449 333.26 331.682C332.946 331.735 332.635 331.811 332.331 331.909L331.412 332.208C330.793 332.425 330.164 332.662 329.544 332.931L329.069 333.127L328.626 333.364L327.738 333.88C327.149 334.231 326.551 334.603 325.973 334.995C323.666 336.632 321.691 338.692 320.151 341.064C319.79 341.663 319.449 342.272 319.119 342.881C318.954 343.18 318.799 343.49 318.654 343.79L318.438 344.254L318.252 344.729C318.014 345.369 317.808 345.998 317.622 346.628C317.54 346.938 317.447 347.247 317.374 347.557C317.291 347.869 317.229 348.186 317.189 348.507C317.016 349.71 316.954 350.926 317.003 352.14C324.904 346.527 331.65 339.444 336.873 331.279L336.883 331.32Z" fill="#257C86"/>
<path d="M324.456 318.49C317.643 327.326 314.133 343.263 316.693 354.163C323.506 345.328 326.974 329.359 324.456 318.49Z" fill="#1D6468"/>
</svg>
