<svg width="134" height="48" viewBox="0 0 134 48" fill="none" xmlns="http://www.w3.org/2000/svg">
<path fill-rule="evenodd" clip-rule="evenodd" d="M35.7937 5.98366C35.8257 6.31461 35.7881 6.64859 35.6832 6.96411C35.5783 7.27963 35.4086 7.56971 35.1849 7.81567C34.9611 8.06164 34.6884 8.25804 34.3842 8.39225C34.08 8.52646 33.7511 8.5955 33.4186 8.59492H27.9322C28.7039 10.4042 29.1235 12.3441 29.1683 14.3105C29.1702 14.8343 29.3795 15.3359 29.7505 15.7056C30.1215 16.0753 30.6239 16.2829 31.1476 16.2829H33.863C34.1221 16.2829 34.3785 16.2318 34.6178 16.1327C34.8571 16.0336 35.0746 15.8883 35.2577 15.7052C35.4408 15.522 35.5861 15.3046 35.6852 15.0653C35.7844 14.826 35.8354 14.5695 35.8354 14.3105V13.3591H36.2035C36.6045 13.3518 36.9867 13.1879 37.2684 12.9023C37.5501 12.6168 37.7087 12.2323 37.7105 11.8312V10.5881L39.03 9.65054C39.1973 9.53011 39.3136 9.35152 39.356 9.14979C39.3984 8.94807 39.3638 8.73778 39.2592 8.5602L38.4605 7.22679C38.8547 5.79811 38.6777 4.27216 37.9671 2.97158C37.2566 1.671 36.068 0.697737 34.6529 0.257582C33.2377 -0.182573 31.7068 -0.055117 30.3839 0.613C29.061 1.28112 28.0498 2.43752 27.5641 3.8377H33.3352C33.9374 3.82978 34.5213 4.0444 34.975 4.44041C35.4287 4.83642 35.7202 5.38596 35.7937 5.98366ZM113.25 1.2681C113.386 1.1318 113.462 0.94694 113.462 0.754183C113.462 0.561426 113.386 0.376564 113.25 0.240265C113.113 0.103965 112.928 0.0273926 112.736 0.0273926C112.543 0.0273926 112.358 0.103965 112.222 0.240265C109.876 2.59155 108.559 5.77718 108.559 9.09841C108.559 12.4196 109.876 15.6053 112.222 17.9566C112.359 18.0923 112.543 18.1695 112.736 18.1719C112.879 18.1712 113.02 18.128 113.139 18.0479C113.258 17.9677 113.351 17.8541 113.406 17.7212C113.461 17.5884 113.475 17.4423 113.448 17.3013C113.42 17.1603 113.351 17.0307 113.25 16.9287C111.182 14.8471 110.022 12.0323 110.022 9.09841C110.022 6.16454 111.182 3.34973 113.25 1.2681ZM114.52 16.0586C114.431 16.0227 114.351 15.9691 114.284 15.9009C112.483 14.0952 111.472 11.6488 111.472 9.09843C111.472 6.54801 112.483 4.10168 114.284 2.29595C114.352 2.22846 114.432 2.17493 114.52 2.1384C114.608 2.10188 114.703 2.08308 114.798 2.08308C114.894 2.08308 114.988 2.10188 115.076 2.1384C115.165 2.17493 115.245 2.22846 115.312 2.29595C115.38 2.36344 115.433 2.44356 115.47 2.53174C115.506 2.61992 115.525 2.71443 115.525 2.80987C115.525 2.90531 115.506 2.99982 115.47 3.088C115.433 3.17618 115.38 3.2563 115.312 3.32379C114.554 4.08157 113.953 4.98128 113.543 5.97151C113.132 6.96174 112.921 8.0231 112.921 9.09496C112.921 10.1668 113.132 11.2282 113.543 12.2184C113.953 13.2086 114.554 14.1083 115.312 14.8661C115.448 15.0039 115.525 15.1898 115.525 15.3835C115.525 15.5772 115.448 15.7631 115.312 15.9009C115.174 16.0335 114.99 16.108 114.798 16.1092C114.703 16.1117 114.608 16.0944 114.52 16.0586ZM126.855 14.8661C126.718 15.0039 126.642 15.1898 126.642 15.3835C126.642 15.5772 126.718 15.7631 126.855 15.9009C126.992 16.035 127.176 16.11 127.368 16.11C127.56 16.11 127.745 16.035 127.882 15.9009C129.683 14.0952 130.695 11.6488 130.695 9.09843C130.695 6.54801 129.683 4.10168 127.882 2.29595C127.815 2.22846 127.735 2.17493 127.647 2.1384C127.558 2.10188 127.464 2.08308 127.368 2.08308C127.273 2.08308 127.178 2.10188 127.09 2.1384C127.002 2.17493 126.922 2.22846 126.855 2.29595C126.787 2.36344 126.733 2.44356 126.697 2.53174C126.66 2.61992 126.642 2.71443 126.642 2.80987C126.642 2.90531 126.66 2.99982 126.697 3.088C126.733 3.17618 126.787 3.2563 126.855 3.32379C128.382 4.85601 129.24 6.93135 129.24 9.09496C129.24 11.2586 128.382 13.3339 126.855 14.8661ZM117.021 13.8869C116.828 13.8831 116.644 13.8061 116.507 13.6716C115.295 12.458 114.615 10.8133 114.615 9.0984C114.615 7.38355 115.295 5.73878 116.507 4.52523C116.643 4.38893 116.828 4.31235 117.021 4.31235C117.213 4.31235 117.398 4.38893 117.535 4.52523C117.671 4.66153 117.747 4.84639 117.747 5.03914C117.747 5.2319 117.671 5.41676 117.535 5.55306C116.598 6.49518 116.072 7.76979 116.072 9.0984C116.072 10.427 116.598 11.7016 117.535 12.6437C117.636 12.7457 117.705 12.8753 117.733 13.0163C117.76 13.1573 117.746 13.3034 117.691 13.4363C117.636 13.5691 117.543 13.6827 117.424 13.7629C117.305 13.8431 117.164 13.8862 117.021 13.8869ZM124.625 13.6716C124.762 13.8073 124.946 13.8845 125.139 13.8869C125.332 13.886 125.517 13.8086 125.653 13.6716C126.865 12.4581 127.545 10.8133 127.545 9.09843C127.545 7.38357 126.865 5.7388 125.653 4.52525C125.513 4.38895 125.325 4.31384 125.129 4.31645C124.934 4.31905 124.748 4.39916 124.611 4.53914C124.475 4.67912 124.4 4.86752 124.403 5.06288C124.405 5.25824 124.485 5.44457 124.625 5.58087C125.565 6.52119 126.094 7.79647 126.094 9.12621C126.094 10.4559 125.565 11.7312 124.625 12.6716C124.558 12.7363 124.505 12.814 124.468 12.8999C124.432 12.9858 124.413 13.0782 124.413 13.1716C124.413 13.2649 124.432 13.3573 124.468 13.4432C124.505 13.5292 124.558 13.6068 124.625 13.6716ZM121.083 12.1646C122.779 12.1646 124.153 10.7903 124.153 9.09496C124.153 7.39966 122.779 6.02534 121.083 6.02534C119.388 6.02534 118.014 7.39966 118.014 9.09496C118.014 10.7903 119.388 12.1646 121.083 12.1646ZM129.424 0.0273926C129.617 0.0273926 129.802 0.103965 129.938 0.240265C131.104 1.40175 132.03 2.78217 132.662 4.3023C133.293 5.82242 133.618 7.45231 133.618 9.09841C133.618 10.7445 133.293 12.3744 132.662 13.8945C132.03 15.4146 131.104 16.7951 129.938 17.9566C129.802 18.0935 129.617 18.1709 129.424 18.1719C129.232 18.168 129.048 18.0911 128.91 17.9566C128.839 17.8915 128.781 17.8121 128.742 17.7236C128.703 17.6351 128.683 17.5394 128.683 17.4426C128.683 17.3459 128.703 17.2502 128.742 17.1617C128.781 17.0732 128.839 16.9938 128.91 16.9287C130.978 14.8471 132.138 12.0323 132.138 9.09841C132.138 6.16454 130.978 3.34973 128.91 1.2681C128.774 1.1318 128.697 0.94694 128.697 0.754183C128.697 0.561426 128.774 0.376564 128.91 0.240265C129.046 0.103965 129.231 0.0273926 129.424 0.0273926ZM36.3007 21.6373C36.1533 20.7045 35.6777 19.8549 34.9597 19.2414C34.2417 18.6279 33.3282 18.2908 32.3838 18.2908C31.4394 18.2908 30.526 18.6279 29.8079 19.2414C29.0899 19.8549 28.6143 20.7045 28.4669 21.6373L25.0014 42.9302C24.8998 43.5551 24.9352 44.1946 25.1051 44.8044C25.2751 45.4143 25.5756 45.9799 25.9858 46.4621C26.396 46.9443 26.9061 47.3316 27.4808 47.5971C28.0555 47.8627 28.6811 48.0001 29.3142 48H35.4812C36.1143 48.0001 36.7398 47.8627 37.3146 47.5971C37.8893 47.3316 38.3994 46.9443 38.8096 46.4621C39.2198 45.9799 39.5203 45.4143 39.6903 44.8044C39.8602 44.1946 39.8956 43.5551 39.794 42.9302L36.3007 21.6373ZM34.6014 5.42883C34.7603 5.66226 34.8465 5.93748 34.8492 6.21982C34.8511 6.40886 34.8154 6.59639 34.7443 6.77157C34.6733 6.94675 34.5682 7.10611 34.4351 7.24043C34.3021 7.37475 34.1438 7.48138 33.9693 7.55414C33.7948 7.6269 33.6076 7.66436 33.4186 7.66435C33.1362 7.66434 32.8602 7.58077 32.6252 7.42418C32.3903 7.26758 32.2069 7.04496 32.0982 6.78436C31.9895 6.52375 31.9604 6.23681 32.0145 5.95968C32.0686 5.68255 32.2035 5.42762 32.4022 5.227C32.6009 5.02638 32.8545 4.88904 33.1311 4.83228C33.4077 4.77552 33.6949 4.80188 33.9565 4.90803C34.2182 5.01419 34.4425 5.19539 34.6014 5.42883ZM32.8606 6.21635C32.8606 6.28792 32.8889 6.35659 32.9394 6.40734L33.2311 6.69902C33.2818 6.74949 33.3505 6.77781 33.4221 6.77781C33.4936 6.77781 33.5623 6.74949 33.613 6.69902L33.9047 6.40734C33.9552 6.35659 33.9835 6.28792 33.9835 6.21635C33.9835 6.14478 33.9552 6.07612 33.9047 6.02537L33.613 5.73369C33.5623 5.68322 33.4936 5.65489 33.4221 5.65489C33.3505 5.65489 33.2818 5.68322 33.2311 5.73369L32.9394 6.02537C32.8889 6.07612 32.8606 6.14478 32.8606 6.21635ZM25.4598 3.69884C25.2685 3.78867 25.06 3.83606 24.8486 3.83774C24.4666 3.83781 24.0998 3.68797 23.8271 3.42045C23.5544 3.15292 23.3975 2.78906 23.3902 2.4071C23.3975 2.02514 23.5544 1.66128 23.8271 1.39376C24.0998 1.12623 24.4666 0.976396 24.8486 0.976465C25.2281 0.976465 25.592 1.12719 25.8603 1.39549C26.1285 1.66379 26.2793 2.02767 26.2793 2.4071C26.2801 2.61874 26.2326 2.82778 26.1404 3.01825L26.9529 3.83774H27.5641C27.4451 4.14444 27.3612 4.46362 27.3141 4.78918H26.5501L25.4598 3.69884ZM24.8486 7.66432C25.1465 7.66267 25.4364 7.5681 25.6779 7.39381C25.9194 7.21952 26.1005 6.97419 26.1959 6.69204H27.3104L27.314 6.71288H27.3171C27.3639 7.03061 27.4441 7.34253 27.5562 7.64348H26.5501L25.4598 8.73382C25.2646 8.63599 25.0497 8.5839 24.8314 8.5815C24.6131 8.5791 24.3971 8.62646 24.1998 8.71998C24.0025 8.8135 23.8292 8.95072 23.6928 9.12124C23.5565 9.29176 23.4608 9.49109 23.4129 9.70411C23.3651 9.91713 23.3664 10.1383 23.4168 10.3507C23.4672 10.5631 23.5653 10.7613 23.7037 10.9302C23.842 11.099 24.0171 11.2342 24.2154 11.3253C24.4138 11.4165 24.6304 11.4612 24.8486 11.4562C25.2281 11.4562 25.592 11.3055 25.8603 11.0372C26.1286 10.7689 26.2793 10.405 26.2793 10.0256C26.2801 9.81393 26.2326 9.60489 26.1404 9.41442L26.9529 8.59492H27.9322C27.8396 8.33442 27.7657 8.16189 27.7062 8.02305L27.7061 8.02297L27.7061 8.02289L27.7061 8.02287C27.6484 7.88818 27.6042 7.78519 27.5699 7.66432H31.5226C31.3082 7.38344 31.1588 7.05848 31.0851 6.71288H27.3171L27.314 6.69204H27.3104C27.2569 6.38474 27.2303 6.07337 27.2307 5.76144H31.0851C31.1603 5.41634 31.3096 5.0917 31.5226 4.80999H27.314C27.2582 5.12405 27.2303 5.44245 27.2307 5.76144H26.1959C26.097 5.48318 25.9144 5.24236 25.6732 5.07201C25.432 4.90166 25.1439 4.81014 24.8486 4.80999C24.6528 4.79632 24.4563 4.82309 24.2713 4.88862C24.0863 4.95416 23.9168 5.05705 23.7732 5.19092C23.6297 5.32478 23.5153 5.48674 23.437 5.66673C23.3588 5.84672 23.3184 6.04089 23.3184 6.23716C23.3184 6.43342 23.3588 6.62759 23.437 6.80758C23.5153 6.98757 23.6297 7.14954 23.7732 7.2834C23.9168 7.41726 24.0863 7.52016 24.2713 7.58569C24.4563 7.65122 24.6528 7.67799 24.8486 7.66432ZM95.7902 18.3039C93.3279 18.3026 90.958 19.2416 89.1648 20.929C87.3665 19.2453 84.996 18.3071 82.5325 18.3039C79.9539 18.3039 77.4808 19.3282 75.6575 21.1516C73.8341 22.975 72.8097 25.448 72.8097 28.0266V44.8193C72.806 45.6432 73.1293 46.435 73.7087 47.0209C74.2881 47.6068 75.0762 47.9389 75.9002 47.9445C76.7248 47.9426 77.5151 47.6142 78.0982 47.0311C78.6813 46.4481 79.0096 45.6578 79.0115 44.8332V28.0544C79.0106 27.5914 79.101 27.1328 79.2775 26.7048C79.454 26.2768 79.7132 25.8879 80.0403 25.5602C80.3673 25.2325 80.7558 24.9725 81.1835 24.7951C81.6111 24.6177 82.0695 24.5264 82.5325 24.5264C83.4574 24.5281 84.3447 24.893 85.0033 25.5425C85.6618 26.1919 86.039 27.074 86.0535 27.9989V28.0475V44.8193C86.0517 45.6451 86.3775 46.4379 86.9595 47.0238C87.5415 47.6097 88.3321 47.9408 89.1579 47.9445C89.9825 47.9426 90.7728 47.6142 91.3559 47.0311C91.939 46.4481 92.2673 45.6578 92.2692 44.8332V28.0058C92.2744 27.5371 92.3734 27.0743 92.5602 26.6444C92.7471 26.2146 93.018 25.8264 93.3571 25.5029C93.6962 25.1793 94.0966 24.9268 94.5347 24.7603C94.9729 24.5938 95.4399 24.5167 95.9083 24.5334C96.8386 24.5887 97.7116 25.0009 98.3456 25.684C98.9795 26.3671 99.3254 27.2684 99.3112 28.2003V44.8193C99.3094 45.2296 99.3888 45.6362 99.5447 46.0158C99.7007 46.3953 99.9302 46.7403 100.22 47.0307C100.51 47.3212 100.854 47.5515 101.233 47.7083C101.613 47.8651 102.019 47.9454 102.429 47.9445C102.841 47.9463 103.248 47.8668 103.629 47.7104C104.009 47.5541 104.355 47.3241 104.646 47.0336C104.937 46.7431 105.168 46.3979 105.325 46.0179C105.482 45.6379 105.563 45.2305 105.562 44.8193V28.0544C105.565 26.7712 105.315 25.4999 104.825 24.3139C104.335 23.1279 103.615 22.0506 102.707 21.1441C101.798 20.2377 100.719 19.5201 99.5323 19.0326C98.3453 18.5451 97.0734 18.2974 95.7902 18.3039ZM123.666 19.2414C124.384 19.8549 124.86 20.7045 125.007 21.6373L128.493 42.9302C128.595 43.5551 128.56 44.1946 128.39 44.8044C128.22 45.4143 127.919 45.9799 127.509 46.4621C127.099 46.9443 126.589 47.3316 126.014 47.5971C125.439 47.8627 124.814 48.0001 124.181 48H118.014C117.381 48.0001 116.755 47.8627 116.18 47.5971C115.606 47.3316 115.096 46.9443 114.685 46.4621C114.275 45.9799 113.975 45.4143 113.805 44.8044C113.635 44.1946 113.599 43.5551 113.701 42.9302L117.173 21.6373C117.321 20.7045 117.796 19.8549 118.514 19.2414C119.232 18.6279 120.146 18.2908 121.09 18.2908C122.035 18.2908 122.948 18.6279 123.666 19.2414ZM8.81996 24.0125H13.9869C14.3824 24.0318 14.7777 23.9705 15.1488 23.8325C15.5199 23.6944 15.8591 23.4824 16.1458 23.2094C16.4325 22.9363 16.6608 22.6078 16.8168 22.2439C16.9727 21.8799 17.0532 21.4881 17.0532 21.0922C17.0532 20.6962 16.9727 20.3044 16.8168 19.9405C16.6608 19.5765 16.4325 19.248 16.1458 18.975C15.8591 18.7019 15.5199 18.4899 15.1488 18.3519C14.7777 18.2138 14.3824 18.1526 13.9869 18.1719H8.33382C6.12356 18.1719 4.00382 19.0499 2.44093 20.6128C0.878032 22.1757 8.28817e-06 24.2954 8.28817e-06 26.5057V45.0762C-0.000907599 45.4604 0.074093 45.841 0.220702 46.1961C0.367312 46.5513 0.58264 46.874 0.854321 47.1456C1.126 47.4173 1.44868 47.6327 1.80382 47.7793C2.15897 47.9259 2.53957 48.0009 2.92379 48C3.69922 48 4.4429 47.6919 4.99121 47.1436C5.53953 46.5953 5.84757 45.8516 5.84757 45.0762V36.3048H13.9869C14.3726 36.3049 14.7545 36.2285 15.1106 36.0803C15.4667 35.9321 15.79 35.7148 16.0617 35.4411C16.3335 35.1674 16.5484 34.8427 16.6942 34.4855C16.8399 34.1284 16.9135 33.7459 16.9107 33.3602C16.9089 32.5854 16.6002 31.8428 16.0523 31.2948C15.5044 30.7469 14.7618 30.4383 13.9869 30.4365H5.84757V26.964C5.85488 26.1799 6.17104 25.4302 6.72749 24.8777C7.28393 24.3251 8.03578 24.0143 8.81996 24.0125ZM50.746 29.3045H61.8577C62.6295 29.3045 63.3696 29.6111 63.9153 30.1568C64.461 30.7025 64.7676 31.4426 64.7676 32.2144C64.7676 32.9861 64.461 33.7263 63.9153 34.272C63.3696 34.8177 62.6295 35.1243 61.8577 35.1243H50.746C49.9742 35.1243 49.2341 34.8177 48.6884 34.272C48.1427 33.7263 47.8361 32.9861 47.8361 32.2144C47.8361 31.4426 48.1427 30.7025 48.6884 30.1568C49.2341 29.6111 49.9742 29.3045 50.746 29.3045Z" fill="url(#paint0_linear)"/>
<defs>
<linearGradient id="paint0_linear" x1="-4.51415" y1="19.8178" x2="64.067" y2="109.925" gradientUnits="userSpaceOnUse">
<stop stop-color="#00A8E3"/>
<stop offset="1" stop-color="#386AB3"/>
</linearGradient>
</defs>
</svg>
